<svg width="60" height="60" viewBox="0 0 60 60" fill="none" xmlns="http://www.w3.org/2000/svg">
<g filter="url(#filter0_d_149_548)">
<rect x="9" y="7" width="40" height="40" rx="4" fill="white" shape-rendering="crispEdges"/>
<path d="M24.5 19C21.4625 19 19 21.4625 19 24.5C19 30 25.5 35 29 36.163C32.5 35 39 30 39 24.5C39 21.4625 36.5375 19 33.5 19C31.64 19 29.995 19.9235 29 21.337C28.4928 20.6146 27.8191 20.025 27.0358 19.6182C26.2525 19.2114 25.3826 18.9994 24.5 19Z" stroke="#BB5C04" stroke-width="2" stroke-linecap="round" stroke-linejoin="round"/>
<rect x="9.5" y="7.5" width="39" height="39" rx="3.5" stroke="#F6F8FF" shape-rendering="crispEdges"/>
</g>
<defs>
<filter id="filter0_d_149_548" x="0" y="0" width="60" height="60" filterUnits="userSpaceOnUse" color-interpolation-filters="sRGB">
<feFlood flood-opacity="0" result="BackgroundImageFix"/>
<feColorMatrix in="SourceAlpha" type="matrix" values="0 0 0 0 0 0 0 0 0 0 0 0 0 0 0 0 0 0 127 0" result="hardAlpha"/>
<feOffset dx="1" dy="3"/>
<feGaussianBlur stdDeviation="5"/>
<feComposite in2="hardAlpha" operator="out"/>
<feColorMatrix type="matrix" values="0 0 0 0 0.919271 0 0 0 0 0.919271 0 0 0 0 0.919271 0 0 0 0.25 0"/>
<feBlend mode="normal" in2="BackgroundImageFix" result="effect1_dropShadow_149_548"/>
<feBlend mode="normal" in="SourceGraphic" in2="effect1_dropShadow_149_548" result="shape"/>
</filter>
</defs>
</svg>
