<svg width="25" height="24" viewBox="0 0 25 24" fill="none" xmlns="http://www.w3.org/2000/svg">
<path d="M11.05 2.53201C11.4558 2.19003 11.9693 2.00247 12.5 2.00247C13.0307 2.00247 13.5442 2.19003 13.95 2.53201L20.7 8.22401C21.207 8.65201 21.5 9.28101 21.5 9.94401V19.254C21.5 19.7181 21.3156 20.1633 20.9874 20.4914C20.6592 20.8196 20.2141 21.004 19.75 21.004H16.25C15.7859 21.004 15.3408 20.8196 15.0126 20.4914C14.6844 20.1633 14.5 19.7181 14.5 19.254V14.247C14.5 14.1807 14.4737 14.1171 14.4268 14.0702C14.3799 14.0233 14.3163 13.997 14.25 13.997H10.75C10.6837 13.997 10.6201 14.0233 10.5732 14.0702C10.5263 14.1171 10.5 14.1807 10.5 14.247V19.254C10.5 19.7181 10.3156 20.1633 9.98744 20.4914C9.65925 20.8196 9.21413 21.004 8.75 21.004H5.25C5.02019 21.004 4.79262 20.9587 4.5803 20.8708C4.36798 20.7829 4.17507 20.6539 4.01256 20.4914C3.85006 20.3289 3.72116 20.136 3.63321 19.9237C3.54527 19.7114 3.5 19.4838 3.5 19.254V9.94401C3.5 9.28101 3.793 8.65201 4.3 8.22401L11.05 2.53201ZM12.983 3.67901C12.8478 3.56519 12.6767 3.50278 12.5 3.50278C12.3233 3.50278 12.1522 3.56519 12.017 3.67901L5.267 9.37001C5.18347 9.44032 5.1163 9.52803 5.07018 9.627C5.02406 9.72597 5.00011 9.83382 5 9.94301V19.253C5 19.391 5.112 19.503 5.25 19.503H8.75C8.8163 19.503 8.87989 19.4767 8.92678 19.4298C8.97366 19.3829 9 19.3193 9 19.253V14.246C9 13.279 9.784 12.496 10.75 12.496H14.25C15.216 12.496 16 13.279 16 14.246V19.253C16 19.391 16.112 19.503 16.25 19.503H19.75C19.8163 19.503 19.8799 19.4767 19.9268 19.4298C19.9737 19.3829 20 19.3193 20 19.253V9.94301C19.9999 9.83382 19.9759 9.72597 19.9298 9.627C19.8837 9.52803 19.8165 9.44032 19.733 9.37001L12.983 3.67901Z" fill="#BB5C04"/>
</svg>
