<svg width="70" height="67" viewBox="0 0 70 67" fill="none" xmlns="http://www.w3.org/2000/svg">
<path d="M43.0484 56.5589L43.017 56.5795L43.0134 56.5744L43.0484 56.5589Z" fill="#BB5C04"/>
<path d="M43.0484 56.5589L43.1383 56.4998V56.637L43.0916 56.5397L43.0484 56.5589Z" fill="#BB5C04"/>
<path d="M42.4712 58.0864L42.4525 58.1232L42.4709 58.1313C42.4711 58.1166 42.4712 58.1017 42.4712 58.0864Z" fill="#BB5C04"/>
<path fill-rule="evenodd" clip-rule="evenodd" d="M32.0773 54.7128C32.0773 54.7128 29.5815 57.6411 28.8117 57.7428H28.7697V57.787L28.9004 57.7251L29.0123 57.9551L28.8024 58.048L28.8491 58.4152H28.7184L28.8817 59.3839L28.6205 59.4237L28.5132 58.7912L28.3172 59.5077L28.0606 59.4458L28.3266 58.4682L28.4618 58.4992V58.4152H28.5971L28.5645 58.163L28.098 58.3754L27.986 58.1453L28.5318 57.9021L28.4572 57.5039C28.4572 57.4774 28.4572 57.442 28.4292 57.4111L28.2706 57.4376L28.098 56.4291H28.2426C28.1493 56.2344 27.972 56.1725 27.6035 56.4291C26.9457 56.8714 26.5492 57.8092 26.5538 58.8133L26.7171 58.7425L26.6704 58.6009L26.9224 58.5213L26.9597 58.6319L27.025 58.6054L27.137 58.8354L27.0576 58.831L27.2256 59.3087L27.3749 58.7602L27.6315 58.8265L27.3655 59.7997L27.109 59.7378L27.1836 59.4591L27.0157 59.5122L26.8151 58.9415L26.5725 59.0477V59.1362L26.9037 59.6095L26.6844 59.7466C26.8042 60.1972 27.0219 60.619 27.3236 60.9851C27.4845 61.1822 27.6802 61.3513 27.902 61.485L27.2536 60.5605L27.3655 60.4853L27.4775 60.4322L27.6081 60.3924L27.7248 60.7242L27.7994 60.4499L28.056 60.5118L27.9394 60.9542L28.2006 61.3302L27.986 61.4629L28.0233 61.5735C28.1736 61.6502 28.3402 61.6937 28.5107 61.7006C28.6812 61.7074 28.8511 61.6776 29.0077 61.6133V61.4717L28.8351 60.4632L29.101 60.4234L29.2642 61.3877V61.4717C29.4703 61.3145 29.635 61.1139 29.7451 60.8859C29.8552 60.6579 29.9078 60.4086 29.8987 60.158C29.8775 59.4658 30.0498 58.7806 30.3979 58.1719L30.1786 57.5526L30.4305 57.473L30.5751 57.8844C30.825 57.5027 31.1041 57.139 31.4102 56.7962C31.6016 56.5732 31.7792 56.3399 31.942 56.0973L31.6668 55.3276L31.9187 55.248L32.1193 55.8186L32.1566 55.7611L32.082 55.0755L32.3432 55.049L32.3805 55.3675C32.4986 55.1496 32.5984 54.9233 32.6791 54.6907L32.6231 54.2483C32.4053 54.3605 32.2184 54.5196 32.0773 54.7128ZM27.6455 57.7738L27.9114 56.7962L28.1679 56.8581L27.902 57.8357L27.6455 57.7738ZM28.8584 60.4278L28.7278 59.4414L28.989 59.4104L29.1196 60.3968L28.8584 60.4278ZM29.8474 57.3226L30.7804 56.9112L30.8924 57.1368L29.9593 57.5526L29.8474 57.3226Z" fill="#BB5C04"/>
<path d="M32.3578 43.1989L32.4179 43.0174L32.4533 43.0291C32.4212 43.0866 32.3894 43.1433 32.3578 43.1989Z" fill="#BB5C04"/>
<path fill-rule="evenodd" clip-rule="evenodd" d="M45.7181 20.1883H44.5098L44.4632 20.3299L44.2113 20.2547V20.1883H43.8521L43.6514 20.9093L43.5115 20.8739L43.4742 20.9934H43.6001L43.7121 21.9621L44.1133 21.8736L44.1739 22.1169L43.2736 22.316L43.1243 22.8733L42.8677 22.8114L42.933 22.5592L42.7044 22.4885L42.863 22.0107L43.0683 22.0727L43.1336 21.8338L43.3902 21.9002L43.3855 22.0284L43.6421 21.9754H43.4835L43.3855 21.0597L43.2316 21.0111L43.5068 20.1883H40.3952L40.0686 20.8297L39.8307 20.7191L40.0033 20.3785H39.9473L40.008 20.2016H39.5088L39.5368 20.4051L39.2756 20.436L39.2429 20.2016H37.4748L37.1716 20.7899L36.929 20.6793L37.1763 20.1927H36.943L37.083 20.2547L36.6165 21.1747L36.3879 21.0597L36.8544 20.175H36.7704V16.3002L36.3505 15.3889L36.5931 15.2872L36.7704 15.6765V13.0224L36.2666 13.1374L36.2059 12.8897L36.7704 12.7659V11.7441C36.771 11.7044 36.7633 11.665 36.7475 11.6283C36.7318 11.5915 36.7085 11.5581 36.6789 11.5301C36.6493 11.502 36.6141 11.4799 36.5753 11.465C36.5365 11.4501 36.495 11.4427 36.4532 11.4433H34.5778L34.6245 11.8856L34.3632 11.9122L34.3119 11.4698H33.9573C33.9155 11.4692 33.874 11.4766 33.8352 11.4915C33.7964 11.5064 33.7612 11.5285 33.7316 11.5566C33.702 11.5846 33.6787 11.618 33.663 11.6548C33.6473 11.6916 33.6395 11.731 33.6401 11.7706V16.7779L33.6821 16.9017H33.7754L33.906 17.8837L33.6448 17.9147V20.237H33.4022L33.4955 21.0509L33.2296 21.0774L33.1363 20.237H32.4412L32.4972 20.3608L32.6185 20.321L32.959 21.2322L32.7071 21.3118L32.5765 20.9536L32.5158 20.9801L32.1519 20.1972H29.6888L29.7447 20.5112H29.6794L29.8007 21.3959L29.5348 21.4269L29.3902 20.4449H29.4508L29.4089 20.1972H26.6098V20.2414L26.871 20.6174L26.6518 20.7545L26.3252 20.2856L26.3486 20.1972H26.2646L26.3392 20.6395L26.0733 20.6793L25.994 20.237H24.6878L24.7531 20.7987L24.4918 20.7899L24.4359 20.3033C24.3927 20.3542 24.3653 20.4155 24.3565 20.4803H24.3985L24.3565 20.6085V22.8202C24.3559 22.8599 24.3637 22.8993 24.3794 22.936C24.3951 22.9728 24.4185 23.0062 24.4481 23.0342C24.4776 23.0623 24.5129 23.0844 24.5516 23.0993C24.5904 23.1142 24.6319 23.1216 24.6738 23.121H28.3639L28.4992 23.037L28.4572 22.7627H29.1383V23.0016H28.7557V23.1077H29.7354L29.6421 22.4H29.7774L29.6328 21.5551L29.894 21.5153L30.0666 22.5194L29.9267 22.5415L29.992 23.0325H30.0013V22.7804H30.5891L30.5425 22.3646L30.8084 22.3381L30.8457 22.6698L30.9577 22.8954L30.8644 22.9352V23.1431H31.2889L30.869 22.5415L31.093 22.4044L31.6061 23.1431H33.3555L33.043 22.2585H33.099L32.9404 21.9134L33.1829 21.8117L33.3555 22.1877V22.0329L33.5888 21.9842L33.6774 22.7627H34.2373L34.0553 23.4041L33.8034 23.3289L33.9107 23.0149H33.5888L33.6308 23.121V23.9703H33.8174V24.134L33.9247 24.0986L33.7661 23.7447L34.0087 23.643L34.4332 24.563L34.1968 24.6622L34.0553 24.2667L34.1906 24.6648L34.1968 24.6622L34.3259 25.0231L34.074 25.1027L33.92 24.6603L33.948 24.9258L33.6868 24.9523L33.6541 24.678V25.952L33.7288 26.0581H33.8081V25.9564H33.9294L34.0553 25.6556L34.2932 25.7618L34.1906 25.9608H34.2652L34.6105 25.2885L34.8484 25.3946L34.7831 25.5273L34.895 25.4787L35.3196 26.3987L35.077 26.5005L34.6898 25.6556L34.5125 26.0051L34.6478 25.9608L34.9883 26.9251L34.7364 27.0047L34.4379 26.1687L34.3725 26.297L34.1953 26.2174L34.0833 26.2439L34.1533 26.903L33.892 26.9295L33.8547 26.6066L33.8174 26.6818L33.6401 26.6022V27.1596L33.6681 27.1065L33.906 27.2171L33.6401 27.739V34.8695H33.7054L33.6401 35.073V35.7011L33.7474 35.3074L34.004 35.3694L33.8687 35.8648L34.004 35.8028L34.116 36.0329L33.7847 36.1788L33.7381 36.3469L33.6401 36.3204V37.5545L34.0786 37.3599L34.1719 37.006L34.4285 37.0724V37.1166L34.6571 37.1829L34.3306 38.1694L34.0553 38.0942V38.0278L33.8687 37.9836L33.9527 37.6739L33.6028 37.8288V38.9611L33.8594 39.0231L33.8314 39.1204L33.9527 39.1558L33.6261 40.1422H33.5981V40.4961C33.9855 39.7263 34.5041 39.0224 35.133 38.4126L35.0583 37.758L35.3242 37.7314L35.3849 38.2711C35.6088 38.1959 35.8047 38.2711 35.9633 38.5498C36.0289 38.665 36.1105 38.812 36.206 38.9842L36.2065 38.985C36.3418 39.2291 36.5053 39.5238 36.6911 39.8502V38.5542H36.6305L36.4578 37.5457L36.6911 37.5103V36.3779L36.5325 36.4177V36.5062L36.2852 36.546L36.3226 36.6167L35.3895 37.0325L35.2776 36.8025L36.2106 36.3912L36.2619 36.5017L36.0986 35.5419L36.3599 35.5021L36.4765 36.1656L36.6771 36.1213V35.1084L36.6258 35.1438L36.1593 34.4979L35.912 34.5333L35.7581 33.6487L35.5575 34.2414L35.3056 34.1662L35.5108 33.5513L35.4548 33.3611L35.2403 34.1441L34.9883 34.0822L35.2542 33.1046H35.2822L35.0117 32.733L35.2309 32.5915L35.6974 33.2329V33.1577L35.9493 33.2329L35.8607 33.5071L36.066 33.4761L36.2059 34.2768L36.3412 34.1927L36.7284 34.7501V32.6136L36.4345 31.782L36.2759 32.2597L36.024 32.1845L36.3505 31.1981L36.6025 31.2733L36.4439 31.751L36.6771 31.6758L36.7284 31.8262V30.8619L36.4952 30.5213L36.7191 30.3842V30.2073H36.6678V30.1675L36.4439 29.5482L36.2573 30.2338L36.1313 30.2028L36.3132 30.7204L36.0613 30.8L35.7254 29.849L35.9773 29.7694L36.052 29.9861L36.1759 29.5817L36.1873 29.5747L36.1809 29.5655L36.2946 29.1943H36.3832L36.5838 29.1103L36.6678 29.2872L36.7331 29.473V28.2698L36.5605 28.2256L36.7331 27.5842V26.213L36.6585 25.9962V26.0272L36.3879 25.952L36.4672 25.7131L35.5342 25.9166L35.4828 25.6556L36.5092 25.4256V25.5185L36.7004 24.9479V23.121H37.3209L37.3629 22.9972L37.6148 23.0724V23.121H39.047L39.019 23.0016L39.4015 22.9131V22.8512L39.6535 22.7716L39.6814 22.8556L40.0593 22.7716L40.12 23.0016L39.7654 23.0768V23.1077H42.6484V23.0237L42.919 23.0016V23.121H43.1803L43.4322 23.0016L43.4882 23.1166H43.5955V22.9662L43.8614 22.9397V23.1166H43.894L44.132 22.2319L44.3885 22.2938L44.1646 23.1166H44.3186V22.9573L44.5845 22.9308V23.1166H45.5175L45.2982 22.6389L45.5408 22.5371L45.7974 23.0945C45.8564 23.0724 45.907 23.034 45.9428 22.9843C45.9785 22.9346 45.9978 22.8759 45.998 22.8158V21.7011L45.1909 21.878L45.135 21.6348L45.998 21.4401V20.4891C45.9985 20.4151 45.9703 20.3435 45.9187 20.288C45.867 20.2325 45.7956 20.197 45.7181 20.1883ZM36.1809 29.5655L36.1759 29.5817L35.9633 29.7118L35.6135 29.2076L35.4455 29.7118L35.5761 30.4594L35.3522 30.5036H35.3102L35.0956 30.455L35.2356 29.933L35.1096 29.8932L35.4222 28.951V28.9245H35.4502L35.1143 27.9779L35.3662 27.8983L35.6648 28.8228L36.1809 29.5655ZM24.7251 22.745L24.6178 21.7586L24.879 21.7321L24.991 22.7185L24.7251 22.745ZM26.4372 22.6654L26.2506 21.6746L26.5165 21.6348L26.6891 22.6433L26.4372 22.6654ZM27.7807 22.3469L27.2256 21.5463L27.4449 21.4092L27.9907 22.2054L27.7807 22.3469ZM30.3839 21.7232L29.8147 20.9226L30.034 20.781L30.5938 21.5817L30.3839 21.7232ZM30.4725 21.3649L30.3605 20.3829L30.6265 20.3564L30.7384 21.3384L30.4725 21.3649ZM32.6558 23.0016H31.7834V22.7494H32.6558V23.0016ZM31.928 22.4442L31.8161 22.2186L32.7491 21.8028L32.861 22.0284L31.928 22.4442ZM34.4845 27.1684L35.0443 27.969L34.8204 28.1062L34.2652 27.3055L34.4845 27.1684ZM34.5918 30.8221L34.3259 30.8487L34.2186 29.8667L34.4798 29.8401L34.5918 30.8221ZM34.2652 27.8673L34.3772 28.8537L34.1113 28.8803L33.9993 27.8938L34.2652 27.8673ZM33.7987 33.8123L34.1253 32.8259L34.3772 32.9055L34.0553 33.9052L33.7987 33.8123ZM34.032 34.3343L34.2979 33.3567L34.5545 33.4231L34.2886 34.3962L34.032 34.3343ZM34.7224 35.0376L34.979 35.0995L34.7131 36.0771L34.4565 36.0152L34.7224 35.0376ZM35.3196 35.1968V35.2411L35.912 34.9801L36.024 35.2057L35.2123 35.564L35.1563 35.7409L35.2356 36.4442H35.2729L35.3336 36.6875H35.2636V36.7185H35.0117L34.3072 36.8777L34.2512 36.63L34.9883 36.515L34.951 36.1877L34.7458 36.1258L34.9743 35.4313L35.063 35.1703L35.3196 35.1968ZM35.0536 34.7545L34.7924 34.781L34.6804 33.7946L34.9464 33.7681L35.0536 34.7545ZM34.8204 32.4455L34.8577 32.7905L34.5918 32.8171L34.4938 31.9324L33.9387 31.1318L34.158 30.9902L34.5218 31.5874L34.7597 30.8752L35.0117 30.9504L34.8531 31.437L35.063 31.4856L34.8204 32.4455ZM36.5651 11.5008L36.6771 11.7264L35.7441 12.1422L35.6321 11.9166L36.5651 11.5008ZM35.7068 13.4648L36.1313 14.3848L35.8887 14.4866L35.4548 13.5532L35.7068 13.4648ZM35.6741 22.4575L35.9074 21.9931L36.15 22.1036L35.7954 22.7981L35.6928 23.0016L35.4548 22.8998L35.5202 22.7716L35.2216 21.9311L35.4548 21.8515L35.6741 22.4575ZM34.6105 11.7175L34.8531 11.6158L35.2822 12.5359L35.0397 12.6332L34.6105 11.7175ZM33.6914 21.4003L34.088 21.2278L34.0553 20.8164L34.3212 20.7855L34.3959 21.3782L33.8034 21.6303L33.6914 21.4003ZM33.7707 18.8524L34.0367 18.8171L34.1673 19.8035L33.9014 19.8344L33.7707 18.8524ZM34.1953 19.078L33.8547 18.1359L34.1066 18.0518L34.4472 19.0205L34.1953 19.078ZM33.864 12.9605L33.7521 12.7305L34.6851 12.3191L34.7971 12.5447L33.864 12.9605ZM34.7364 12.8499L34.7737 13.2082L35.1469 13.1286L35.2076 13.3719L34.5452 13.5179L34.4705 12.8765L34.7364 12.8499ZM35.1236 20.9005L34.8717 20.9801L34.5218 20.0291L34.7737 19.9494L35.1236 20.9005ZM35.7627 31.1539L36.024 31.2158L35.8141 31.9899L35.9214 32.4809L35.6601 32.5207L35.5948 32.1447H35.5248L35.5621 31.9943L35.4828 31.552L35.6974 31.5166L35.7627 31.1539ZM35.7348 27.3011L35.856 27.5621L36.066 26.934L36.3179 27.0092L36.0193 27.8938L36.1593 28.1946L35.9214 28.3096L35.4922 27.425L35.7348 27.3011ZM36.2246 24.7709L35.9214 23.9393L35.5202 24.0278L35.3009 24.4701L35.0583 24.3596L35.1843 24.1118H35.1143L34.7458 24.8417L34.5218 24.7355L34.937 23.9128L34.9837 23.8288L35.091 23.8818L35.3429 23.8243L35.5342 23.4439L35.7767 23.5545L35.6741 23.7491L35.954 23.6872L35.982 23.8155L36.1406 23.7624L36.4812 24.7134L36.2246 24.7709ZM36.2246 22.6123L35.982 22.5017L36.4485 21.5861L36.6911 21.6923L36.2246 22.6123ZM37.9367 22.0771L37.6848 22.0019L38.0113 21.0155L38.2632 21.0907L37.9367 22.0771ZM39.8027 22.3469L39.5601 22.3779L39.3176 22.3071L39.1496 22.6344L38.8977 22.5592L39.2709 21.825L39.0423 21.8957L38.7204 20.9491L38.9723 20.8651L39.3036 21.794L39.3829 21.6392L39.4575 21.6746L39.4249 21.4047H39.6301V21.3694L39.882 21.4446L39.7421 21.8869L39.8027 22.3469ZM41.1276 22.7893L41.053 22.5592L42.0793 22.3337L42.1353 22.5769L41.1276 22.7893ZM42.5272 22.055L42.3965 21.073L42.6624 21.042L42.7931 22.024L42.5272 22.055ZM44.5238 20.8828L44.4678 20.7899H44.5285L44.6638 20.29L44.9204 20.352L44.7851 20.8562L45.1443 21.6259L44.9017 21.7276L44.6731 21.2322V21.3074L44.4165 21.2455L44.5238 20.8828ZM44.2253 21.9842L44.1133 21.0022L44.3792 20.9757L44.4865 21.9577L44.2253 21.9842ZM45.3309 22.1833L45.4429 22.4088L44.5098 22.8246L44.3979 22.5991L45.3309 22.1833Z" fill="#BB5C04"/>
<path d="M65.705 46.4013L65.6754 46.419L65.6731 46.4155L65.705 46.4013Z" fill="#BB5C04"/>
<path d="M65.705 46.4013L65.8014 46.3438V46.4809L65.7547 46.3791L65.705 46.4013Z" fill="#BB5C04"/>
<path fill-rule="evenodd" clip-rule="evenodd" d="M69.5801 33.4938L69.5475 33.37L69.2536 33.4275L69.3562 33.2284L69.1183 33.1223L68.9224 33.5027L68.5118 33.5912L68.5678 33.8389L68.7777 33.7902L68.6518 34.0423L68.8897 34.1485L69.109 33.7062L69.5102 33.6177L69.7901 34.436L69.9114 34.3962C69.8678 35.4903 69.7683 36.5681 69.6128 37.6297L69.3002 36.9529L69.0576 37.0547L69.4822 37.9747L69.5708 37.9393C69.5242 38.249 69.4775 38.5365 69.4262 38.824L69.1696 38.4569L68.9503 38.5984L69.3562 39.1779C69.3453 39.2325 69.335 39.2875 69.3246 39.3426C69.3038 39.4527 69.2831 39.5627 69.2583 39.6689L68.8244 40.527L69.039 40.6243C68.7871 41.6977 68.4761 42.749 68.106 43.7782L68.0407 43.6013L67.882 43.6543L67.854 43.5261L67.5741 43.588L67.6768 43.3934L67.4342 43.2828L67.2429 43.6632L66.8324 43.7517L66.8091 43.6057L66.5478 43.6367L66.6784 44.6186L66.9397 44.5877L66.8324 43.7605L66.8884 43.9994L67.0936 43.9507L66.9677 44.2028L67.2103 44.309L67.4295 43.8667L67.8307 43.7782L67.9613 44.1542C67.7841 44.6319 67.5928 45.1273 67.3969 45.5697L67.089 45.7068V45.5608L66.8277 45.5918L66.8557 45.8174L66.6644 45.9058L66.7391 46.0607L66.4872 46.1712L66.5991 46.4013L67.1683 46.1491C66.991 46.5384 66.8044 46.9232 66.6131 47.3036L66.4125 47.0205L66.1933 47.1577L66.4545 47.5336H66.3332V47.7858H66.3752C66.3405 47.8548 66.3033 47.9214 66.2653 47.9893C66.2523 48.0127 66.2391 48.0362 66.2259 48.06L66.1886 47.7239L65.9227 47.7504L66.002 48.4626C65.6055 49.1836 65.2043 49.8913 64.7378 50.5769L64.6398 49.8294L64.4554 49.8509L64.9104 48.9536L64.6724 48.843L64.2059 49.763L64.407 49.8565L64.3739 49.8603L64.5045 50.8468H64.5651C63.9581 51.7556 63.3045 52.6356 62.6067 53.4837L63.0443 52.6205L62.8064 52.51L62.3399 53.43L62.5647 53.5345C62.4934 53.6209 62.4215 53.707 62.3492 53.7927L62.2513 53.0717L61.99 53.1027L62.116 54.0626L61.8967 54.3235H61.8594L61.7847 54.4651L61.4535 53.5406L61.2016 53.6202L61.5421 54.5712L61.7521 54.5049C61.4628 54.8278 61.1689 55.1419 60.8704 55.4515L60.6978 54.4607L60.4365 54.5005L60.6091 55.5046L60.8564 55.4692C60.8269 55.5009 60.7976 55.5326 60.7683 55.5643C60.659 55.6826 60.5506 55.7998 60.4365 55.9115L59.4708 56.1283L59.5315 56.3716L60.0866 56.2477C59.8067 56.5264 59.5222 56.8006 59.2329 57.066L58.953 57.3182L58.6358 56.4335L58.4772 56.4821L58.4492 56.3583L58.1693 56.4202L58.2719 56.2212L58.0293 56.115L57.8381 56.4954L57.4229 56.5839L57.4835 56.8316L57.6888 56.7829L57.5628 57.0306L57.8054 57.1412L58.0247 56.6989L58.4212 56.6104L58.7244 57.4509L58.8271 57.4155C58.4585 57.7428 58.0853 58.0657 57.6981 58.3754C57.6048 58.455 57.5068 58.5302 57.4089 58.6054C57.1476 58.8133 56.8817 59.0123 56.6158 59.2114L56.5458 58.5877L56.2799 58.6142L56.3079 58.8708L55.874 58.2515L55.6548 58.3886L56.1773 59.2733L56.3032 59.1981L56.3359 59.4856C55.8974 59.8041 55.4635 60.1182 54.997 60.419C54.9484 60.4564 54.8969 60.4904 54.843 60.5207C54.3159 60.8701 53.7887 61.2019 53.2383 61.516L53.1729 61.0338L52.9117 61.0648L52.991 61.6575L52.6225 61.8654V61.8389L51.6894 62.2547L51.7408 62.352C51.4833 62.4617 51.2377 62.5827 50.9921 62.7037C50.9307 62.734 50.8693 62.7642 50.8077 62.7943L50.7378 62.6528L49.8047 63.0641L49.884 63.2234L49.2449 63.5065C49.1957 63.5316 49.1442 63.5524 49.091 63.5684L48.9417 63.6303L48.867 63.4799L48.8064 63.5109L48.7644 63.3959L48.5125 63.4799L48.5638 63.6171L48.2186 63.7675L48.1906 63.7276L47.9667 63.8648H47.92L47.976 63.9754L47.5561 64.139L47.5235 63.9975L47.0057 64.1125L47.057 64.3115H47.0103V64.2629L46.4785 64.4973C45.3565 64.8681 44.2151 65.184 43.059 65.4439L43.1196 65.2183L44.02 65.0193L43.9593 64.776L43.1943 64.9441L43.2363 64.7981L42.9797 64.7362L42.9144 64.9706L42.7091 64.9131L42.5505 65.3908L42.7791 65.4616V65.5147C41.7372 65.7388 40.6798 65.9172 39.6068 66.0499V66.0057L39.9613 65.9261L39.9007 65.6828L39.5228 65.7668L39.4948 65.6828L39.2429 65.7624V65.8243L38.8604 65.9084L38.9677 66.1472C38.7037 66.1739 38.4371 66.1931 38.1698 66.2123C38.0828 66.2185 37.9958 66.2248 37.9087 66.2313L37.8854 66.1428L37.4189 66.2401L37.4982 65.988L37.2463 65.9128L37.1203 66.2932C36.4952 66.3286 35.8794 66.3507 35.2542 66.3507H34.979C33.7754 66.3507 32.6091 66.2888 31.4429 66.1782L31.5688 66.0986L31.0137 65.2979L30.7897 65.4351L31.2329 66.1693C30.8924 66.1384 30.5518 66.0986 30.2113 66.0543L30.7944 65.7978L30.6824 65.5678L29.8147 65.9526L29.7494 65.4616L29.8894 65.4395L29.7168 64.431L29.4555 64.4708L29.6001 65.3201H29.4648L29.5488 65.9482C27.9056 65.7058 26.2826 65.3525 24.6924 64.891L24.6644 64.6433L24.4032 64.6698V64.8114C22.8966 64.3586 21.4238 63.8103 19.9947 63.1703L19.6681 63.0199C19.5545 62.9692 19.4433 62.914 19.3327 62.8591C19.2889 62.8373 19.2453 62.8156 19.2016 62.7943L19.3276 62.4183L19.4395 62.3697L19.3602 62.2104L19.6168 62.0998L19.5002 61.8698L18.5671 62.2856L18.6418 62.4449L18.5578 62.4803C18.1846 62.2945 17.8161 62.0998 17.4522 61.8964H17.4195C16.7944 61.5469 16.1693 61.1754 15.5535 60.7817C15.4648 60.7286 15.3809 60.6755 15.2922 60.6136L14.4992 60.0872L14.6671 59.7554L14.4245 59.6449L14.2799 59.9324C14.2452 59.908 14.2104 59.8836 14.1754 59.8591C14.0455 59.7681 13.914 59.6761 13.7854 59.5785L13.6175 59.4591L12.9783 58.9858L13.0856 58.9504L12.7451 57.9994L12.4932 58.0834L12.7498 58.8044L12.2832 58.424L12.036 58.2205C11.6301 57.8888 11.2336 57.5482 10.8464 57.1943L10.7997 57.1545L10.9863 57.1147L11.2476 57.0882L11.1963 56.6193L11.7794 56.345L11.6674 56.115L11.1729 56.3362L11.145 56.084L10.879 56.1106L10.9164 56.4468L10.7298 56.5308L10.8464 56.7697L10.9537 56.721L10.9957 57.1058L10.935 56.8581L10.5898 56.9378C10.1326 56.5264 9.6941 56.084 9.26491 55.6417L9.37687 55.3011L9.12496 55.2259L9.05965 55.425L8.9057 55.2613H9.01299L8.89637 54.4076H8.95702L9.23692 53.4389L8.98034 53.3769L8.73309 54.2882H8.63046L8.73309 55.0534C7.58755 53.8175 6.53972 52.5031 5.59813 51.121L5.8034 50.3646H5.75208L6.21859 50.1656L6.10663 49.9355L5.17361 50.3513L5.28557 50.5814L5.51416 50.4796L5.3882 50.8512C5.28039 50.6944 5.17535 50.5246 5.07094 50.3557C5.03981 50.3054 5.00874 50.2551 4.97767 50.2054L5.18294 49.794L4.94502 49.6834L4.81439 49.9444C4.76308 49.8648 4.71176 49.7851 4.66511 49.7011L5.09897 48.8651L4.85638 48.7545L4.5065 49.449C4.4167 49.3165 4.33165 49.1594 4.24796 49.0047C4.21426 48.9424 4.18077 48.8805 4.14728 48.8209L4.48317 48.7457L4.42253 48.5024L4.01666 48.5908C2.29269 45.4901 1.10209 42.1481 0.489837 38.6913L0.42919 38.1384H0.396535C0.351749 37.8765 0.318907 37.6147 0.286065 37.3528C0.277854 37.2873 0.269643 37.2219 0.261246 37.1564H0.317228L0.265911 36.6743L0.709097 36.4752L0.788404 37.1564H1.04965L0.933022 36.1523L0.704432 36.1877V36.2231L0.237921 36.4221L0.205265 36.17H0.149284C0.140471 36.0655 0.129346 35.9615 0.118238 35.8577C0.0940663 35.6317 0.0699767 35.4064 0.0699767 35.1791H0.0979673L0.041986 34.6705C0 34.175 0 33.6796 0 33.1754C0 32.419 0.0373209 31.6714 0.0886371 30.9415L0.125958 31.2733L0.391869 31.2468L0.279907 30.2648H0.144618C0.214595 29.4907 0.307897 28.721 0.43852 27.969L0.905032 27.7611L0.793069 27.5355L0.494502 27.6682C0.520409 27.4994 0.550811 27.3433 0.581028 27.1881C0.594342 27.1198 0.607619 27.0516 0.62046 26.9826C0.867078 25.7378 1.18951 24.5075 1.58614 23.2979L1.96868 23.8509L2.18794 23.7093L1.69344 22.9972C1.77274 22.7583 1.85671 22.5239 1.94535 22.2894L2.03399 22.8291L2.2999 22.7893L2.12729 21.7851C2.22992 21.5197 2.34189 21.2588 2.45385 20.9978L2.49117 21.1128L2.74309 21.0288L2.60313 20.6351C2.71296 20.4054 2.82056 20.1756 2.92746 19.9474C2.97495 19.846 3.02229 19.7449 3.06964 19.6442V19.83L3.33555 19.8035L3.26558 19.193C4.54178 16.6007 6.16628 14.1757 8.09863 11.9785L8.15928 12.5491L8.42519 12.5226L8.33655 11.7175L8.53249 11.5008L8.9057 12.3191V12.3855H8.92902L8.95702 12.4474L9.1996 12.3501L9.15761 12.2528L9.05498 11.5008H9.11563L9.29757 10.625C9.7081 10.2047 10.1326 9.79336 10.5665 9.39526L10.6598 10.2357H10.8697L10.9304 10.4082L11.1823 10.3286L10.8464 9.37757V9.24044H10.7764C11.4886 8.59463 12.2273 7.97683 12.9923 7.38705L13.1603 7.75419L13.4029 7.65245L13.2069 7.21011C15.024 5.83892 16.9787 4.64033 19.043 3.6316L19.1783 4.41453L18.9637 4.43665L19.0663 5.18862L18.7024 4.66667L18.4785 4.80379L19.0383 5.60442L19.2576 5.4673L19.2203 5.40979H19.3602L19.2576 4.64013L19.4768 4.60474L19.3042 3.60063L19.0803 3.6316C19.6215 3.37062 20.1719 3.11848 20.7318 2.88404L20.7831 3.32638L21.049 3.29984L20.9883 2.76904C21.3522 2.60979 21.7208 2.46825 22.0893 2.3267L22.4252 3.26888L22.6771 3.18926L22.6258 3.04771H22.7564L22.6538 2.12765C23.6148 1.78557 24.596 1.48331 25.5975 1.22085L25.6581 1.24739L25.6908 1.20758C26.064 1.11027 26.4372 1.0218 26.8151 0.933333L26.9084 1.62338L26.7498 2.10111L27.0017 2.1763L27.1463 1.73397H27.1883V1.64107L27.3376 1.19874L27.1183 1.13239L27.0856 0.884676C28.9269 0.470985 30.8007 0.200263 32.6884 0.0751975V0.128278L32.5951 0.101738L32.2686 1.08373L32.5205 1.15893L32.5905 0.946603L32.7304 0.981991L32.9823 0.0530806H33.0383V0.0884676L33.2996 0.0619273V0.0398104C33.8594 0 34.4239 0 34.9883 0C36.5487 0.00271714 38.1071 0.103199 39.6534 0.30079V0.411374L39.924 0.380411V0.358294C40.8011 0.476251 41.6688 0.623697 42.5272 0.800632L42.5691 1.13681L42.8351 1.10585L42.8024 0.862559C43.6235 1.03065 44.4399 1.24297 45.2423 1.47299L45.3356 1.67646L45.5781 1.57472L46.1846 1.76935L46.2686 2.68057L46.5345 2.65403L46.4365 1.86224C47.4022 2.17188 48.3026 2.52133 49.2356 2.90616L49.1003 3.30869L49.3569 3.38389L49.4782 3.01232C50.1779 3.31311 50.8684 3.6316 51.5448 3.97662L51.4468 4.32164H51.2976L51.4282 5.30806L51.6894 5.27709L51.5775 4.39242L51.6894 4.42338L51.7827 4.07393L52.3799 4.41011L52.4732 5.25055H52.6365L52.7344 5.22844L52.8837 5.16651L52.5991 4.55166L53.1496 4.85245L53.1776 5.07804L53.4435 5.04708L53.6581 5.17535L53.4155 6.06003H53.3129V6.08657L53.0703 6.18831L53.4342 6.97567V7.04645L53.4622 7.1128L53.7048 7.01106L53.6628 6.91374L53.5601 6.16619H53.6208L53.8587 5.28152L54.2646 5.52923L54.1153 5.97156L54.3905 6.00253L54.5212 5.61327C54.8151 5.79905 55.1043 5.99809 55.3935 6.19714L55.4635 6.82085L55.7248 6.79431L55.6828 6.39178L56.112 6.697L56.1866 6.90932L56.3312 6.86066C57.5859 7.77709 58.7736 8.77316 59.886 9.84202L59.6015 10.4038L59.8441 10.51L60.082 10.0367C60.1893 10.1384 60.2966 10.2445 60.3992 10.3507L60.4365 10.5453H60.5765C60.9963 10.9877 61.4069 11.43 61.7987 11.8724L61.5701 12.3147L61.8081 12.4209L61.99 12.067C62.0935 12.1835 62.1903 12.3043 62.2881 12.4264C62.3314 12.4804 62.3748 12.5347 62.4192 12.5889H62.3352L62.3026 12.5049L62.0506 12.5845L62.074 12.6464L61.6868 12.7305L61.7474 12.9782L62.1579 12.8853L62.3912 13.5355L62.6431 13.4559L62.4192 12.8278H62.5125L62.5638 13.1551L62.8297 13.1242V13.0711C63.063 13.3763 63.2822 13.6638 63.5015 13.9558L63.3149 14.0398L63.3895 14.1946L63.1376 14.3052L63.2496 14.5352L63.7627 14.3052L63.5855 14.8316H63.119L63.0023 14.5043L62.951 14.1239L62.6851 14.1548L62.7364 14.5264V14.5573L62.8111 15.1324H62.937L63.063 15.4907L63.3149 15.4066L63.2029 15.0926H63.5062L63.7394 15.1633V15.0926H63.9307V14.8404H63.8234L63.912 14.5706C64.1779 14.9378 64.4345 15.3182 64.6818 15.6986L64.4672 16.4904L64.6818 16.5434L64.4065 17.3795L64.6584 17.4547L64.985 16.4727L64.7657 16.4063L64.8777 15.9861C65.6889 17.2523 66.409 18.5691 67.033 19.9273L67.0097 19.9981H67.0796C67.2009 20.2679 67.3175 20.5421 67.4342 20.8163L66.9677 21.0288L67.0796 21.2588L67.5462 21.0509C67.7561 21.5463 67.9473 22.0506 68.1293 22.5592H68.0686L68.1666 23.2139L68.3672 23.1697C69.2769 25.8839 69.8116 28.6985 69.958 31.5431L69.6221 32.2066L69.86 32.3172L69.972 32.096C70 32.4543 70 32.8701 70 33.1754C70 33.3297 69.994 33.4794 69.9881 33.6276C69.9824 33.7724 69.9767 33.9157 69.9767 34.06L69.7341 33.4452L69.5801 33.4938ZM67.8494 28.2167L67.6814 27.7434L67.4295 27.8275L67.5928 28.2698H67.5508L67.6068 28.5131H67.6768L67.7701 28.7741L68.022 28.6945L67.938 28.4556L68.1246 28.4114L68.064 28.1681L67.8494 28.2167ZM68.0686 34.237L67.6441 33.3213L67.4015 33.4231L67.8261 34.3387L68.0686 34.237ZM66.5618 37.5191L66.6738 37.7447L66.8091 37.6784V37.7049L67.047 37.8111L67.2009 37.5103L67.6115 37.3289L67.4995 37.1033L67.3829 37.152L67.5135 36.8954L67.2756 36.7848L67.0003 37.3245L66.5618 37.5191ZM67.3782 26.7747L67.0377 25.8237L66.7857 25.9077L67.1263 26.8543L67.3782 26.7747ZM66.963 21.0332L66.7064 20.958L66.3799 21.9444L66.6365 22.0196L66.963 21.0332ZM66.4545 24.9656L66.7064 24.8859L66.3659 23.9349L66.114 24.0145L66.4545 24.9656ZM65.7314 23.9261L65.988 24.0013L66.3146 23.0193L66.058 22.9397L65.7314 23.9261ZM65.6754 22.0373L65.4235 22.1169L65.7594 23.0812L66.0113 23.0016L65.6754 22.0373ZM65.2089 22.0904L66.1419 21.6746L66.03 21.449L65.097 21.8648L65.2089 22.0904ZM65.4655 17.928L65.2089 17.866L64.943 18.8392L65.1996 18.9055L65.4655 17.928ZM64.8497 20.1927L64.9337 19.8787L64.6678 19.8079L64.4019 20.7855L64.6584 20.8474L64.7937 20.3475L65.0923 21.1703L65.3442 21.0907L65.0083 20.1397L64.8497 20.1927ZM64.2666 18.2597L64.4672 17.5122L64.2106 17.4679L63.9447 18.4455L64.052 18.4676L63.7581 19.3523L64.0147 19.4275L64.2246 18.7905L64.4019 19.2904L64.6538 19.2107L64.3179 18.2597H64.2666ZM63.9773 17.291L63.6414 16.34L63.3895 16.4196L63.7254 17.3706L63.9773 17.291ZM63.1936 18.0695L63.3242 19.0515L63.5855 19.0205L63.4548 18.0385L63.1936 18.0695ZM62.923 16.0967L62.979 16.539L62.8064 17.0167L63.0583 17.0919L63.3009 17.0654L63.2356 16.5611L63.3802 16.1188L63.1283 16.0392V16.0746L62.923 16.0967ZM62.4472 14.6679L62.3352 14.4379L61.4675 14.8227H61.2996V15.0749H61.3276L61.2203 15.1235L61.3322 15.3491L61.9527 15.0749H62.1766V14.9776L62.2699 14.9378L62.1953 14.7785L62.4472 14.6679ZM61.1969 13.5975L61.3182 13.3586L61.113 13.2701L60.6465 14.1548L60.8517 14.2787L60.9963 13.9956L61.1036 14.6193L61.3649 14.5795L61.1969 13.5975ZM61.0243 12.5624L60.8517 11.5583L60.5905 11.5981L60.7631 12.6066L61.0243 12.5624ZM60.7071 13.2392L60.6465 12.9959L59.6248 13.2215L59.6854 13.4648L60.7071 13.2392ZM59.3589 11.4742L59.1163 11.3637L58.6498 12.2837L58.8924 12.3943L59.3589 11.4742ZM57.5255 10.7532L57.7774 10.6736L57.4369 9.72259L57.1849 9.80221L57.5255 10.7532ZM56.9284 8.29384L56.7604 7.82054L56.5085 7.90458L56.6671 8.34692H56.6251L56.6858 8.59021H56.7557L56.8444 8.85118L57.0963 8.77156L57.0123 8.5327L57.2036 8.49289L57.143 8.24518L56.9284 8.29384ZM55.6641 8.83349L55.6035 8.58578L54.5818 8.8158L54.6425 9.05908L55.6641 8.83349ZM55.5522 7.84708L55.6641 8.83349L55.9254 8.80695L55.8181 7.82054L55.5522 7.84708ZM54.5631 8.80695L54.1386 7.88689L53.896 7.98862L54.3206 8.90869L54.5631 8.80695ZM54.0453 7.02875L53.7934 6.95355L53.6395 7.44455L53.8914 7.51975L54.0453 7.02875ZM53.3595 7.11722L53.103 7.05087L52.8371 8.02844L53.0983 8.09036L53.3595 7.11722ZM52.935 7.17472L52.8231 6.19273L52.5618 6.21927L52.6691 7.20126L52.935 7.17472ZM51.932 7.23223L51.8014 6.25024L51.5402 6.2812L51.6708 7.26761L51.932 7.23223ZM51.4049 5.39652L51.1483 5.3346L50.8824 6.31216L51.139 6.37409L51.4049 5.39652ZM49.8421 4.08278L49.5901 4.00758L49.2636 4.994L49.5155 5.06919L49.8421 4.08278ZM48.9277 3.36619L48.6851 3.25561L48.2186 4.17567L48.4612 4.28626L48.9277 3.36619ZM48.6851 5.32133L49.0117 4.33934L48.7551 4.25972L48.4285 5.24613L48.6851 5.32133ZM46.4039 3.38389L45.9793 2.46825L45.7601 2.56998L46.1846 3.49005L46.4039 3.38389ZM44.8317 1.39336L44.5798 1.31817L44.2532 2.30458L44.5052 2.37978L44.8317 1.39336ZM43.073 3.04771L42.947 2.06572L42.6811 2.10995L42.8117 3.09637L43.073 3.04771ZM42.1539 1.43318V1.29605L41.888 1.32701L41.972 2.29131H42.1773L42.2379 2.46382L42.4898 2.3842L42.1539 1.43318ZM39.9567 1.38452L39.7934 0.442338L39.5322 0.482148L39.7048 1.48626H39.7841L39.9054 2.4019L40.1713 2.37093L40.0407 1.38452H39.9567ZM38.7111 0.866983L38.4545 0.805055L38.1886 1.76935L38.4452 1.84455L38.7111 0.866983ZM38.1326 1.65877L37.96 0.650237L37.6988 0.690047L37.8714 1.69858L38.1326 1.65877ZM33.5235 2.0436L33.4162 1.06161L33.1503 1.08815L33.2576 2.07014L33.5235 2.0436ZM32.4459 1.96398L32.1893 1.89763L32.1333 2.13649L31.928 2.07457L31.7694 2.55229L31.998 2.62306L31.928 2.8752L32.1893 2.93712L32.4459 1.96398ZM31.7834 0.221169L31.5362 1.13239L31.4335 1.16335L31.5641 2.14534L31.8254 2.11438L31.7134 1.26066H31.7741L32.04 0.283096L31.7834 0.221169ZM30.9297 0.765245L30.6778 0.690047L30.3512 1.69415L30.6031 1.76935L30.9297 0.765245ZM28.3545 1.87994L28.014 0.92891L27.7621 1.01295L28.1026 1.96398L28.3545 1.87994ZM27.4588 3.68025L27.3282 2.69826L27.0576 2.73807L27.1976 3.71122L27.4588 3.68025ZM26.6285 2.37536L26.4558 1.37125L26.1899 1.41106L26.3672 2.41517L26.6285 2.37536ZM25.6115 1.31817H25.5228L25.2709 2.30016L25.5322 2.36209L25.7141 1.67646L25.938 2.29573L26.1899 2.21169L25.896 1.41106L25.8167 1.23412L25.6115 1.31817ZM25.1916 2.16746L24.9677 2.05687L24.4825 2.99021L24.7251 3.09637L25.1916 2.16746ZM25.0003 4.31722L25.2662 3.34408L24.991 3.28215L24.7251 4.25529L25.0003 4.31722ZM21.2869 5.26825L21.1749 4.28626L20.9137 4.3128L21.021 5.29479L21.2869 5.26825ZM17.4429 7.58167L17.3822 7.33839L16.3559 7.56398L16.4165 7.81169L17.4429 7.58167ZM14.7837 7.84708L14.6111 6.83855L14.3499 6.88278L14.5225 7.88689L14.7837 7.84708ZM15.3949 8.03728L15.3342 7.794L14.3126 8.01959L14.3732 8.26288L15.3949 8.03728ZM14.2752 9.48815L13.8461 8.57251L13.6035 8.67425L14.0327 9.58989L14.2752 9.48815ZM12.9177 8.32038L12.8804 7.96208L12.5958 7.99747L12.6844 8.63002L13.3469 8.48404L13.2909 8.23633L12.9177 8.32038ZM11.91 12.2085L11.5741 11.2575L11.3269 11.3504L11.6628 12.297L11.91 12.2085ZM11.1963 12.1864L11.1076 11.1956L10.8231 11.231L10.935 12.213L11.1963 12.1864ZM10.2073 10.3861L9.95535 10.3109L9.62879 11.2929L9.88071 11.3725L10.2073 10.3861ZM9.81073 14.2566L10.0533 14.1548L9.62412 13.2348L9.38154 13.3365L9.81073 14.2566ZM9.53549 12.3766L9.28357 12.3014L9.12496 12.7836L9.37687 12.8588L9.53549 12.3766ZM9.4142 14.2919L9.28357 13.31L9.02233 13.3409L9.15295 14.3229L9.4142 14.2919ZM8.84972 12.4474L8.59314 12.3855L8.32722 13.363L8.58381 13.425L8.84972 12.4474ZM8.32256 14.4025L8.06598 14.3362L7.80007 15.3005L8.05665 15.3624L8.20593 14.8051L9.1063 14.606L9.04565 14.3627L8.64445 14.4512L8.53249 13.4825L8.27124 13.509L8.37854 14.491H8.53715L8.28057 14.5441L8.32256 14.4025ZM7.62279 15.0882L7.06298 14.2875L6.84372 14.4291L7.39887 15.2297L7.62279 15.0882ZM7.52482 17.3441L7.79074 16.3665L7.53416 16.3046L7.26824 17.2777L7.52482 17.3441ZM7.05365 15.0882L6.99767 14.8449L5.97134 15.0705L6.03199 15.3137L7.05365 15.0882ZM6.23259 20.0468L5.8967 19.0957L5.64478 19.1798L5.98067 20.1264L6.23259 20.0468ZM5.56081 18.1359L5.22493 17.1981L4.97301 17.2645L5.3089 18.2155L5.56081 18.1359ZM5.0943 20.7058L5.35555 20.666L5.18294 19.6575L4.92169 19.6973L5.0943 20.7058ZM5.01033 18.6534L4.83772 17.6449L4.57181 17.6935L4.74442 18.6932L5.01033 18.6534ZM3.4895 21.1482L3.44752 20.7899L3.1956 20.8164L3.26558 21.4578L3.91869 21.3074L3.85805 21.0641L3.4895 21.1482ZM3.84405 24.9125L4.09597 24.8329L3.76008 23.8863L3.50816 23.9615L3.84405 24.9125ZM3.41953 22.9308L3.08364 21.9798L2.83172 22.0506L3.16761 23.0016L3.41953 22.9308ZM2.6078 24.5984L2.47251 23.7934L2.19727 23.8332L2.36988 24.8417L2.61713 24.8019L3.08364 25.4477L3.3029 25.3106L2.74775 24.51L2.6078 24.5984ZM3.07431 28.867L3.33555 28.8272L3.16295 27.8275L2.9017 27.8673L3.07431 28.867ZM2.71976 26.8057L2.66378 26.6951L1.75408 27.1109L1.86604 27.3365L2.74309 26.9207L2.71043 26.8499L2.95768 26.8145V26.7216L3.24692 26.6553L3.18627 26.412L2.91569 26.4739L2.79907 25.806L2.55648 25.8458L2.71976 26.8057ZM0.63912 26.9826L0.699767 27.2259L1.72609 26.9826L1.66544 26.7526L0.63912 26.9826ZM0.499167 32.2199L0.237921 32.2464L0.345218 33.2284L0.61113 33.2019L0.499167 32.2199ZM0.466511 34.2104L0.564479 35.1968L0.83972 35.1703L0.732423 34.1839L0.466511 34.2104ZM1.04965 27.8894L0.807064 27.9912L1.23159 28.9112L1.47418 28.8095L1.04965 27.8894ZM0.895701 38.1472L0.970343 38.7886L1.63279 38.6427L1.57214 38.3949L1.19893 38.479L1.16161 38.1207L0.895701 38.1472ZM2.33256 30.6452L1.90337 29.7251L1.66544 29.8269L2.08997 30.7469L2.33256 30.6452ZM2.60313 35.3649L1.67011 35.7763L1.78207 36.0063L2.7151 35.5905L2.60313 35.3649ZM3.36355 45.9457L3.60147 46.0518L4.06798 45.1362L3.83006 45.0256L3.36355 45.9457ZM6.15795 49.3959L6.48451 48.4095L6.26058 48.3254L6.53116 48.2635L6.47051 48.0202L6.03665 48.1175L6.12529 47.9406L5.88737 47.83L5.70543 48.1883L5.44885 48.2458L5.5095 48.4935H5.55615L5.42086 48.7633L5.65878 48.8695L5.88737 48.4272L6.22792 48.352L5.90603 49.3207L6.15795 49.3959ZM5.79407 46.91L5.32756 47.83L5.57014 47.9362L6.03665 47.0161L5.79407 46.91ZM6.75042 52.6338L7.007 52.6957L7.27291 51.7226L7.01633 51.6562L6.75042 52.6338ZM7.27757 50.6831L7.53882 50.745L7.80007 49.7675L7.54349 49.7055L7.27757 50.6831ZM8.36454 50.3336L8.1033 50.3646L8.22926 51.3422L8.4905 51.3112L8.36454 50.3336ZM8.36454 52.333L8.4905 53.3194L8.75641 53.284L8.62579 52.3021L8.36454 52.333ZM9.45618 54.2439L9.7081 54.3191L10.0347 53.3371L9.78274 53.2619L9.45618 54.2439ZM10.6691 54.1554L10.7811 55.1419L11.0423 55.1153L10.935 54.1289L10.6691 54.1554ZM11.1683 54.2749L11.5042 55.2259L11.7561 55.1463L11.4202 54.1953L11.1683 54.2749ZM12.4325 57.0483L12.3485 56.8095L12.5398 56.7697L12.4792 56.5264L12.2646 56.575L12.0966 56.1017L11.8447 56.1814L12.0033 56.6237H11.9613L12.022 56.867H12.0873L12.1806 57.128L12.4325 57.0483ZM12.7264 55.9425L13.5755 55.5665L13.6408 55.5178L13.5288 55.2923L13.3655 55.3807L12.6145 55.7125L12.7264 55.9425ZM14.4852 54.8986L14.5971 55.1242L15.2876 54.8101H15.3202L15.5348 54.7128L15.4229 54.4872L15.2782 54.5536L15.1476 53.8104L14.8864 53.8547L14.9517 54.2351L14.5458 53.3504L14.3032 53.4521L14.7278 54.3678L14.961 54.2749L15.0263 54.6597L14.4852 54.8986ZM15.4042 56.867L15.6701 56.8272L15.5535 56.1504L15.5768 56.2079L15.8194 56.1062L15.3949 55.1861L15.1523 55.2878L15.4042 55.8363L15.2316 55.8629L15.4042 56.867ZM15.1523 58.831L15.5908 57.9463L15.7541 58.8663L16.0153 58.8265L15.8427 57.8224L15.5815 57.8622V57.8932L15.3809 57.8047L14.9144 58.7204L15.1523 58.831ZM16.7431 52.8815L16.8317 53.5229L16.9763 53.5052L16.8271 53.806L16.3605 54.0095L16.4725 54.2395L17.4055 53.8237L17.3262 53.6689L17.5828 53.5539L17.4708 53.3283L17.3262 53.3902L17.3915 53.2531L17.1536 53.1469L17.0696 53.3106L17.0463 53.1336H17.4242V52.8815H16.7431ZM17.6201 52.2269L17.858 52.3374L18.3246 51.4174L18.0866 51.3068L17.6201 52.2269ZM17.9513 53.2575L18.4179 52.3374L18.1799 52.2269L17.7134 53.1469L17.9513 53.2575ZM17.7274 58.6098V58.4417L17.4895 58.4727H17.4429L17.5735 59.4547L17.8347 59.4237L17.7274 58.6098ZM17.2189 56.522L17.3495 57.5039L17.6108 57.473L17.4848 56.491L17.2189 56.522ZM17.037 54.5536H16.9577L17.009 54.6509L16.8131 55.0313L17.051 55.1419V55.1109L17.1023 55.5223L17.3682 55.4913L17.2609 54.6951L17.4848 54.2483L17.2469 54.1422L17.037 54.5536ZM16.0853 56.9997L16.5518 56.0796L16.3139 55.969L15.8474 56.8891L16.0853 56.9997ZM15.9127 59.8793L16.0853 60.8834L16.3466 60.8436L16.1739 59.8395L15.9127 59.8793ZM16.1833 57.6057L16.3419 58.048L16.5938 57.964L16.5518 57.849L16.3139 57.1899L16.2299 57.0085L15.9873 57.1103L16.0666 57.2828L16.1833 57.6057ZM16.6778 58.9991L17.0183 59.9501L17.2469 59.8749L16.8737 60.6136L17.1116 60.7197L17.5781 59.7997L17.3402 59.6935L17.2609 59.8483L16.9297 58.9194L16.6778 58.9991ZM17.6994 61.8521L17.9513 61.7681L17.7274 61.1444L17.8207 61.1223L17.8627 61.4408L18.1286 61.4098L17.998 60.4278L17.7368 60.4588L17.7881 60.8701L17.6435 60.9055L17.6108 60.8215L17.3589 60.9011L17.3822 60.963L16.995 61.0471L17.0556 61.2904L17.4662 61.2019L17.6994 61.8521ZM18.0493 58.884L18.082 58.8177L18.5158 57.964L18.2779 57.8534L17.8534 58.685L17.8114 58.7735L18.0493 58.884ZM19.2109 56.0177L18.7444 56.9378L18.9823 57.0439L19.4488 56.1238L19.2109 56.0177ZM19.7054 61.454L19.9713 60.6446L20.1346 60.5693L20.074 60.3261L19.8547 60.3747H19.7894V60.4145L19.0663 60.5738L19.127 60.8215L19.6728 60.7109L19.4535 61.3788L19.7054 61.454ZM20.7737 60.1447L20.6431 59.1627L20.4798 59.1671L20.7084 58.4815L20.4565 58.4063L20.13 59.3927L20.3819 59.4679L20.4239 59.3352L20.5265 60.1049V60.158L20.5918 60.1447H20.7737ZM21.0863 56.4556L20.7597 57.4376L21.0117 57.5128L21.3382 56.5308L21.0863 56.4556ZM20.1206 57.2253L20.2512 58.2073L20.5125 58.1763L20.3819 57.1943L20.1206 57.2253ZM19.8594 55.2569L19.99 56.2433L20.2512 56.2123L20.1253 55.2259L19.8594 55.2569ZM19.6774 55.0976L19.9154 55.2082L20.3819 54.2882L20.144 54.1776L19.6774 55.0976ZM20.7038 61.83L20.993 61.7017L20.9277 61.5204L21.4968 61.2682L21.3849 61.0426L20.9184 61.2594V61.109L20.6524 61.1444L20.6851 61.37L20.4892 61.4585L20.5685 61.6133L20.3166 61.7238L20.4285 61.9539L20.5965 61.8787L20.3492 62.7855L20.6058 62.8474L20.8717 61.8698L20.7038 61.83ZM21.2869 60.3393L22.1873 60.1491L22.1266 59.9058L21.3615 60.0739L21.3989 59.928L21.1423 59.866L21.0117 60.3526L20.8764 60.8436L21.1376 60.9055L21.2869 60.3393ZM21.6741 57.9065L21.4082 58.8796L21.6648 58.946L21.9307 57.9684L21.6741 57.9065ZM22.3505 59.0035L22.0846 59.03L22.1919 60.012L22.4578 59.9855L22.3505 59.0035ZM22.3039 60.9984L22.4112 61.9981L22.6724 61.9716L22.5698 61.0426V60.9984H22.3039ZM22.5232 62.9668L22.6351 63.9488L22.901 63.9223L22.7891 62.9403L22.5232 62.9668ZM23.6661 64.3159L23.9227 64.3912L24.2492 63.4092L23.9927 63.334L23.6661 64.3159ZM24.2306 62.7235L24.3426 63.7055L24.6085 63.679L24.4965 62.697L24.2306 62.7235ZM26.1806 63.2057L26.5072 63.6746L26.7264 63.5419L26.4652 63.1703L26.5818 62.728L26.3252 62.666L26.1806 63.2057ZM27.0576 64.4619L27.6175 65.2714L27.8367 65.121L27.2769 64.3204L27.0576 64.4619ZM29.6654 63.8515L30.2206 64.6521L30.4165 64.4973L29.8567 63.6967L29.6654 63.8515ZM31.6714 65.1608L31.7834 65.3864L32.7164 64.9706L32.6045 64.745L31.6714 65.1608ZM33.2343 66.134L33.4862 66.0499L33.4349 65.8951H33.5655L33.4535 64.9131L33.1923 64.9396L33.2389 65.3554L33.1456 65.0989L32.8937 65.1829L33.2343 66.134ZM33.5422 64.3292L33.6541 64.5548L34.2233 64.3071L34.1486 63.7144L33.8827 63.7453L33.9387 64.1567L33.5422 64.3292ZM35.5342 65.9349L35.6368 65.7314L35.6461 65.7359L36.0007 65.037L35.7581 64.9308L35.5248 65.3731L35.3102 64.7804L35.0583 64.86L35.3569 65.7005L35.2916 65.8243L35.5342 65.9349ZM36.3272 64.5194L35.8607 65.4395L36.1033 65.5501L36.5698 64.63L36.3272 64.5194ZM37.862 63.9621L37.5355 64.9485L37.7874 65.0237L38.114 64.0373L37.862 63.9621ZM38.1886 62.9359V62.9757L38.4312 63.042L38.7577 62.06L38.5012 61.9848L38.3239 62.5201L38.1606 62.0777L38.0813 61.9008L37.8387 62.0025L37.9134 62.1706L38.1886 62.9359ZM38.7204 65.466L38.9723 65.6031L39.4249 64.6566L39.1869 64.546L39.1076 64.7008L38.7764 63.7719L38.5245 63.8515L38.865 64.8025L39.0936 64.7318L38.7204 65.466ZM39.1683 60.0209L38.8417 61.0073L39.0983 61.0825L39.4249 60.0961L39.1683 60.0209ZM39.7747 58.194L39.4948 59.0344L39.8214 59.0698L40.1479 58.0834L39.952 58.0215L40.3439 57.243L40.2366 57.1943C40.2832 57.1476 40.3366 57.1074 40.3952 57.0749H40.4792V57.0174C40.5958 56.9953 40.6984 57.0483 40.7871 57.1987L40.9643 57.4907L40.3159 57.7782L40.4279 58.0082L41.1043 57.7074C41.2396 57.9109 41.3795 58.1144 41.5195 58.2913L41.6175 59.0212L41.8834 58.9902L41.8367 58.6363C42.1847 58.962 42.4609 58.968 42.4709 58.1313L42.7231 58.2427L43.1569 57.3137L42.919 57.2032L42.4712 58.0864C42.4712 58.0854 42.4712 58.0844 42.4712 58.0834V57.9065C42.4689 57.7754 42.4567 57.6475 42.4448 57.5223C42.4322 57.3896 42.4199 57.2598 42.4199 57.1324L43.1943 56.7874V56.9864L43.4555 56.9599L43.3482 55.9735L43.0823 56L43.1103 56.261L42.6811 55.6373L42.4572 55.7788L43.0134 56.5744L42.3545 56.867C42.2825 56.388 42.2497 55.9044 42.2566 55.4205C42.2742 55.1446 42.3371 54.873 42.4432 54.6155L42.9097 54.5137L42.9703 55.0224L43.2316 54.9959L43.1709 54.4562H43.2596L43.1989 54.213H43.143V54.0227L42.877 54.0493V54.2705L42.5925 54.3324C42.659 54.2227 42.7338 54.1177 42.8164 54.0183C43.1524 53.6285 43.5818 53.3542 43.9462 53.1214C44.3054 52.892 44.6014 52.703 44.6824 52.4834L44.8504 52.9523L45.1023 52.8682L44.7617 51.9216L44.5098 52.0013C44.3957 51.891 44.2689 51.7931 44.132 51.7093C43.9657 51.5932 43.8097 51.4645 43.6654 51.3245L43.6048 50.8512L43.3389 50.8821V51.0237C43.1336 50.8069 42.919 50.5681 42.6998 50.3204V50.1921H42.6718V50.0904H42.5085C42.4328 50.0029 42.357 49.9148 42.2813 49.8267C41.6328 49.0731 40.9868 48.3224 40.4605 47.9937L40.3485 47.3302L40.0873 47.37L40.1666 47.8521C39.882 47.7548 39.6488 47.8433 39.4902 48.1972C39.2287 48.8238 39.0516 49.4792 38.963 50.1479L38.8604 49.5507L38.5991 49.5949L38.6458 49.8648L38.2073 49.2411L37.988 49.3782L38.5432 50.1788L38.6831 50.0904L38.7717 50.599H38.879C38.7671 51.1343 38.6178 51.4395 38.1793 51.2714C37.8569 51.1507 37.6621 50.8224 37.4932 50.5379C37.1732 49.9988 36.9464 49.6166 36.122 51.0989C35.5567 52.2038 35.078 53.3466 34.6898 54.5182L34.4705 54.6111L34.5731 54.8322C34.5125 54.9915 34.4519 55.1419 34.3959 55.2746L33.7148 55.5754C33.663 55.3264 33.6473 55.0719 33.6681 54.819C33.699 54.3217 33.7723 53.8276 33.8874 53.3415L34.046 53.6866L34.2886 53.5848L33.9853 52.9302C33.994 52.8899 34.0049 52.85 34.018 52.8107H34.2652L34.1999 52.218C34.4562 51.2815 34.8962 50.3992 35.4968 49.6171C36.3972 48.6572 36.6584 48.1529 36.6258 46.8878C36.6238 46.7953 36.6167 46.6971 36.6092 46.5937C36.5992 46.4548 36.5885 46.3063 36.5885 46.1491L36.7378 46.1182L36.6771 45.8705L36.5698 45.897C36.5648 45.8333 36.5567 45.7685 36.5485 45.7021C36.5338 45.584 36.5185 45.461 36.5185 45.3308C36.5105 45.243 36.5019 45.1551 36.4933 45.0671C36.4616 44.7426 36.4299 44.4178 36.4299 44.1011C36.4227 43.9775 36.416 43.8552 36.4093 43.7351C36.3029 41.8084 36.2253 40.4032 35.1143 42.0354C34.6801 42.6679 34.3645 43.3667 34.1813 44.1011C34.0325 44.8165 33.8377 45.5226 33.5981 46.2155L33.5142 46.2553L33.4815 45.9324L33.2156 45.9589L33.2996 46.6932L32.5718 46.8524L32.6325 47.1002L33.2249 46.9675C33.1229 47.137 33.0108 47.301 32.889 47.4585C32.6884 47.7194 32.4225 48.0556 32.124 48.4316L32.0633 47.9893L31.8021 48.0202L31.8954 48.7457C31.7805 48.8672 31.6656 49.0125 31.5467 49.1629L31.5268 49.188H31.4242V49.2897C30.8924 49.9488 30.2999 50.6742 29.6981 51.3776L29.6748 51.3024L29.7541 51.006L29.5488 50.9529L29.2782 50.1965L29.1476 50.2363L29.0357 50.2894L28.9237 50.3646L29.4462 51.1785L29.2316 51.9747C29.1209 52.0925 29.0118 52.2205 28.9034 52.3479C28.8244 52.4406 28.7457 52.5329 28.6671 52.6205L28.3919 51.842L28.14 51.9216L28.4665 52.8461C28.07 53.2885 27.6921 53.6954 27.3562 54.0272L27.4962 53.5848L27.2443 53.5096L26.9457 54.3943C26.7257 54.6376 26.4474 54.8273 26.134 54.9472C26.0416 54.9609 25.9472 54.9557 25.8571 54.9321C25.767 54.9084 25.6833 54.8669 25.6115 54.8101L25.5741 54.7039H25.4995C25.4306 54.6455 25.3642 54.5802 25.2967 54.5139C24.9712 54.194 24.6209 53.8497 23.8481 54.1245L23.904 53.9564L23.6521 53.8812L23.5215 54.266C23.4383 54.3088 23.3526 54.3472 23.2649 54.381L23.0083 54.0095L22.9244 54.067L22.7191 54.0139L22.5465 54.6464L21.8934 54.8322L21.9867 54.5536L21.7348 54.4784L21.5855 54.9207C21.4747 54.9447 21.3701 54.9896 21.278 55.0527C21.1858 55.1157 21.1079 55.1957 21.049 55.2878C20.965 55.5002 21.049 55.8098 21.4315 56.3141C21.5948 56.5352 21.7627 56.7874 21.926 57.0616H21.856L21.9633 58.0348L22.2293 58.0082L22.1686 57.473C22.2292 57.5879 22.2852 57.7117 22.3411 57.8355L22.1966 58.278L22.4485 58.3532L22.4952 58.2117C22.7202 58.755 22.8555 59.3279 22.8964 59.9103C22.8836 60.0725 22.8587 60.2336 22.8217 60.3924L22.3552 60.6003L22.4672 60.8303L22.7284 60.7109C22.691 60.8141 22.6458 60.9146 22.5931 61.0117C22.6397 61.0332 22.6881 61.0509 22.7378 61.0648C23.1669 61.2461 23.6335 61.4098 24.1 61.569V61.6973L24.3612 61.6708L24.4965 61.715L24.2959 62.3166L24.5525 62.3918L24.7484 61.7946C26.1284 62.2386 27.5391 62.5918 28.9703 62.8518L29.0823 63.0199L29.2223 62.9314L29.2922 63.334H29.2316L29.3622 64.3159L29.6281 64.285L29.5068 63.4003H29.5721L29.4928 62.958C30.3854 63.1054 31.2889 63.2175 32.2033 63.2941L32.5345 64.2186L32.7864 64.139L32.4925 63.3163L32.9917 63.3517L33.057 63.9444L33.3229 63.9179L33.2622 63.3693C33.6774 63.4047 34.102 63.4047 34.5218 63.4047L34.7178 63.9002L34.9697 63.8205L34.8251 63.418H34.993C35.5062 63.418 36.0147 63.4003 36.5232 63.3782L36.2199 63.9754L36.4625 64.0859L36.8264 63.3649H36.8917L36.7751 63.5905L37.0177 63.6967L37.1949 63.3428L37.4842 62.781L37.4142 62.7501C37.5573 62.4316 37.6972 62.1175 37.8341 61.8079L37.9507 61.861L38.4172 60.9409L38.2539 60.8657L38.6644 59.9501L38.8744 60.043L39.3409 59.1273L39.0983 59.0167L39.1115 58.9895C39.1906 58.827 39.2658 58.6726 39.3409 58.5302L39.4342 58.4904L39.3969 58.4152L39.5695 58.0967L39.7747 58.194ZM24.9024 52.7665L24.6504 52.8461L24.991 53.7972L25.2429 53.7175L24.9024 52.7665ZM27.8927 51.5545H27.6874L27.7341 51.9924L27.6128 52.364L27.4075 52.3949L27.5801 53.4035L27.8461 53.3592L27.7014 52.5321L27.8227 52.5675L28.0653 52.5365L28 52.0366L28.1446 51.5943L27.8927 51.5191V51.5545ZM29.9733 50.5902L30.2253 50.5106L30.0387 49.9842L30.2906 49.0553L30.034 48.9889L29.8754 49.564L29.6328 49.6436L29.9733 50.5902ZM30.9903 48.7191L30.7244 49.6923L30.981 49.7586L31.2469 48.781L30.9903 48.7191ZM31.7834 44.9902L31.6248 45.4679L31.8534 45.5387L31.7834 45.7908L32.0447 45.8528L32.3059 44.8796L32.0493 44.8133L31.9887 45.0521L31.7834 44.9902ZM32.3578 43.1989L32.0913 44.0038L32.3432 44.079L32.4132 43.8667L32.5532 43.9021L32.8191 42.9245L32.5625 42.8626L32.5112 43.0483L32.4533 43.0291C32.5302 42.8914 32.6086 42.7488 32.6885 42.6036C32.7346 42.5196 32.7813 42.4348 32.8284 42.3494L32.903 43.0085L33.1689 42.982L33.0616 42.0398L33.0943 41.9469H33.127L33.2016 41.6682C33.2778 41.5365 33.3529 41.4047 33.4275 41.2739C33.5081 41.1325 33.5881 40.9922 33.6681 40.8543C34.2279 39.8856 34.8017 39.0319 35.2682 38.7267L35.5062 38.7002V38.6205C35.7114 38.5675 35.884 38.6294 36.0427 38.9125C36.0828 38.9842 36.129 39.0669 36.1807 39.1596C36.3331 39.4329 36.5335 39.7923 36.7704 40.2085C37.5448 41.5709 38.6924 43.5261 39.7421 44.9769L39.7701 45.1804V45.2866L39.7934 45.3839H39.7374L39.91 46.388L40.022 47.2461L40.2832 47.2152L40.1526 46.2332L40.008 45.375C40.3922 45.9546 40.8931 46.4567 41.4822 46.8524C42.1088 47.1935 42.6538 47.6544 43.0823 48.206L42.7651 49.157L43.0217 49.2322L43.0636 49.0995L43.1476 49.9223L43.4135 49.8913L43.8427 49.0464C44.1389 49.3466 44.5335 49.5431 44.9623 49.6038C45.2671 49.6333 45.5784 49.6348 45.89 49.6363C46.2794 49.6382 46.6693 49.6402 47.0476 49.6967L46.9404 50.0948L47.1969 50.1567L47.3089 49.7453L47.5002 49.8028L47.6028 50.0904V50.1302L47.8594 50.2098L47.934 49.9754L48.0087 50.0152L48.046 50.2186L48.2559 50.1833C48.502 50.3808 48.7063 50.621 48.8577 50.891C49.1188 51.3357 49.4317 51.7512 49.7907 52.1295L49.856 52.3021L49.9354 52.2755C50.066 52.3994 50.1966 52.5188 50.3319 52.6294L50.3925 52.8727L50.6118 52.824C51.0098 53.1204 51.4644 53.3412 51.9507 53.4742L52.0067 53.89L51.89 53.8635L51.6241 54.8367L51.8807 54.903L52.1 54.0979H52.2959L52.2259 53.5494H52.3985L52.3099 53.6025L52.8697 54.4032L53.089 54.266L52.5945 53.5539H52.6225C53.0936 53.5406 53.5881 54.1112 54.1526 54.8101L53.91 54.8367L54.0127 55.5886L53.6488 55.0667L53.4249 55.2038L53.9847 56.0044L54.2039 55.8673L54.1666 55.8054H54.3066L54.1806 54.8543C54.5764 55.3777 55.0065 55.8771 55.4682 56.3494L55.6828 56.1769C57.4455 54.7517 59.0423 53.1516 60.4459 51.4041L60.3712 51.5457L60.6138 51.6562L61.0803 50.7362L60.9917 50.6964C61.1876 50.431 61.3835 50.1656 61.5748 49.8913L61.6121 50.1965L61.878 50.1656L61.7987 49.5728C62.1533 49.0553 62.4845 48.5289 62.8064 47.9893L62.867 48.1131L63.4875 47.8389H63.7114V47.7415L63.8001 47.6973L63.7254 47.5425L63.9773 47.4319L63.8654 47.2019L63.0443 47.5381C63.3336 47.0338 63.6088 46.5251 63.8654 46.0032L63.9773 46.9498L64.2386 46.9188L64.108 45.9368L63.8747 45.9633C64.08 45.552 64.2712 45.1583 64.4532 44.716L64.5138 44.8L64.7331 44.6585L64.5745 44.4329C64.8482 43.7929 65.097 43.1442 65.3209 42.4866L65.3629 42.8714L65.6288 42.8449L65.5215 41.8806C65.7221 41.2392 65.904 40.5934 66.0626 39.9387L66.1653 40.7128L66.4312 40.6818L66.3006 39.6954H66.114C66.118 39.6803 66.1227 39.6651 66.1275 39.6499C66.1394 39.612 66.1513 39.5741 66.1513 39.5362L66.5571 38.7355L66.3426 38.6382C66.5442 37.5843 66.689 36.5213 66.7764 35.4534L67.2989 36.2009L67.5182 36.0638L66.963 35.2632L66.7811 35.3782C66.7868 35.2992 66.7928 35.2204 66.7989 35.1416C66.8227 34.8324 66.8464 34.5242 66.8464 34.2104L67.5462 34.0556L67.4855 33.8123L66.8557 33.9494V33.1621C66.8557 33.0232 66.849 32.8811 66.8421 32.7364C66.835 32.5861 66.8277 32.4329 66.8277 32.2774L66.9397 32.5118L67.1823 32.4101L66.8091 31.6139C66.7578 30.6585 66.6551 29.7118 66.5105 28.7785H66.5805L66.5198 28.5308H66.4732C66.003 25.6159 65.0785 22.7835 63.7301 20.1264L63.912 19.454L63.6554 19.3921L63.5481 19.7858C63.2729 19.2594 62.9837 18.7419 62.6758 18.2332L62.7224 18.0916L62.5592 18.043C62.2699 17.552 61.9574 17.0654 61.6261 16.5921H61.7054L61.5328 15.5836L61.2669 15.6234L61.3742 16.2338C61.0663 15.8003 60.7398 15.3801 60.4085 14.9643V14.8227H60.2966C59.6761 14.0575 59.0137 13.3188 58.3232 12.6111L58.4398 12.5712L58.0993 11.6202L57.8474 11.7043L58.1413 12.3501C57.5068 11.7175 56.849 11.1115 56.1586 10.5321L56.0746 9.7624L55.8087 9.78894L55.8647 10.2932C55.2536 9.78894 54.6191 9.28468 53.966 8.84234L53.8447 7.93554L53.5835 7.96651L53.6721 8.64329C53.4808 8.51058 53.2896 8.37788 53.0936 8.25403V8.1346H52.949C51.7553 7.36602 50.5085 6.67441 49.2169 6.06446V6.02022L48.965 5.94502C48.6011 5.77694 48.2373 5.62212 47.8687 5.4673L47.9807 5.24171L48.1626 5.21074L47.976 4.12259L47.6821 5.18862H47.7101L47.6261 5.35671L47.2296 5.19747H47.2856L46.8564 4.28183L46.7444 4.32607L46.6651 3.60948L46.4039 3.63602L46.5112 4.62243H46.7164L46.9543 5.13997C45.9635 4.75866 44.953 4.42501 43.9267 4.14028L44.1833 3.36619L43.9314 3.291L43.6701 4.07393C43.6121 4.05785 43.5542 4.04135 43.4961 4.02482C43.3625 3.98681 43.2282 3.9486 43.0916 3.91469L42.8817 3.32638L42.6298 3.406L42.7837 3.84834L42.4525 3.77314L42.3919 3.24676L42.126 3.2733L42.1726 3.71564C41.5475 3.58294 40.9317 3.46351 40.3066 3.36177V3.30869L40.1573 2.42401L39.8914 2.46382L40.036 3.29542C39.4948 3.2158 38.949 3.14502 38.3985 3.09194L38.3192 2.6496L38.058 2.69384V2.77788L37.9227 2.7425L37.8387 3.06098C36.8964 2.98136 35.9493 2.9327 34.9883 2.9327C33.7409 2.93531 32.4947 3.00768 31.2562 3.14945L31.5128 2.23381L31.2562 2.17188L30.9857 3.15387H31.079L31.0443 3.15763C30.729 3.19178 30.4096 3.22637 30.0946 3.2733L30.2766 2.72923L30.0247 2.65403L29.8007 3.33965L28.9237 3.49005L28.7091 2.84423L28.4572 2.92385L28.6345 3.53428C28.0373 3.64929 27.4495 3.78199 26.8664 3.92354L26.7777 3.39273L26.5911 3.41927V3.38831L26.6844 3.17156L26.4325 3.09637L26.3859 3.23349L26.2739 3.26888L26.3252 3.41485L26.106 4.07836L26.2459 4.12259C25.4342 4.33934 24.6318 4.58705 23.8481 4.86572L24.2399 3.98547L23.9973 3.87488L23.5308 4.79494L23.6941 4.87014L23.3069 5.01169L22.9943 4.12701L22.8637 4.17125V4.00758L22.6025 4.03412L22.7098 5.01611L22.9757 4.98957L22.9477 4.72859L23.0783 5.10016C22.0171 5.50828 20.9786 5.96744 19.9667 6.47583L19.8174 6.26351L19.7707 6.29005L19.6495 5.59115L19.3882 5.63096L19.5608 6.63507H19.6914L19.5328 6.71911L19.4908 6.38736L19.2249 6.41833L19.2809 6.86066L19.127 6.94913L18.4085 7.1128L18.4598 7.32512C17.2846 8.00458 16.1579 8.75671 15.087 9.57662L14.961 8.85118L14.6998 8.89542L14.8491 9.75355C13.4989 10.8016 12.2399 11.951 11.0843 13.1905H11.047V13.2259C10.7764 13.509 10.5058 13.8054 10.2446 14.1106L10.072 14.1504L10.1046 14.2831C9.65056 14.8139 9.21826 15.3609 8.80773 15.9242L8.75641 15.4553L8.4905 15.4818L8.56981 16.2338L8.4905 16.3444L8.17328 15.9021L7.94935 16.0392L8.33189 16.5921C7.94624 17.1494 7.5777 17.723 7.22626 18.3128L6.99767 18.2553L6.75975 19.0913C6.46118 19.6221 6.18594 20.1618 5.92003 20.7147L5.89204 20.5953L4.87038 20.8253L4.93102 21.0686L5.86404 20.8651C5.73809 21.1305 5.61213 21.3959 5.4955 21.6613L5.26691 21.6967L5.32756 22.0682C4.78061 23.3799 4.33166 24.7265 3.98401 26.0979L3.8907 26.1378L3.86271 26.0979L3.66678 26.2793H3.62013L3.73209 26.5093L3.7974 26.4784L3.87204 26.5845C3.61694 27.6694 3.42384 28.7665 3.29357 29.8711H3.25158V30.0038C3.16761 30.7823 3.12096 31.5652 3.09763 32.357L2.72909 31.5652L2.4865 31.667L2.91103 32.5826L3.09297 32.5074V33.1754C3.08741 34.7869 3.21845 36.3963 3.48484 37.988L2.57981 38.187L2.64045 38.4303L3.53149 38.2357C3.84019 39.9539 4.30853 41.6428 4.93102 43.2828L4.75841 43.2032L4.2919 44.1232L4.52982 44.2338L4.96368 43.3491C5.29957 44.2338 5.67744 45.1185 6.06464 45.9457H5.98534L6.15795 46.9542L6.42386 46.91L6.35388 46.5118C6.40741 46.6134 6.46264 46.7133 6.51752 46.8125C6.55351 46.8776 6.58935 46.9424 6.62446 47.0073L6.52183 47.3169L6.77374 47.3921L6.80173 47.3257C7.14229 47.9185 7.49683 48.5156 7.87937 49.0951L7.01633 49.4799L7.12829 49.7055L8.01 49.3163H8.03332C8.50916 50.0284 9.00833 50.7229 9.54482 51.3908H9.46551L9.1996 52.364L9.45618 52.4259L9.68477 51.581L10.1186 52.0942L10.072 52.2401L10.3052 52.3109L10.4452 52.479L10.5198 53.1381L10.7298 53.116L10.7904 53.2929L11.0423 53.2088L10.9957 53.0806C11.5322 53.6556 12.0873 54.2218 12.6658 54.7615L12.8477 54.9295C13.5615 54.1378 14.2379 53.3946 14.8584 52.7665H14.9377V52.709C16.1599 51.4926 17.107 50.7008 17.7368 50.9397C18.3362 51.167 18.7286 51.8513 19.1029 52.5041C19.1219 52.5371 19.1408 52.5701 19.1596 52.6028L18.4598 52.9125H18.2919V53.1646H18.3199L18.2173 53.2088L18.3292 53.4389L18.945 53.1646H19.1736V53.0673L19.2622 53.0231L19.1876 52.8682L19.2902 52.824C19.3882 52.9921 19.4908 53.1513 19.5935 53.2929L19.7474 54.2528L20.0133 54.2218L19.934 53.6379C20.0658 53.7746 20.2439 53.8631 20.4373 53.8882C20.6308 53.9132 20.8274 53.8732 20.993 53.775L21.0236 53.7592C21.1604 53.6881 21.312 53.6093 21.4595 53.5229L21.5108 54.0935L21.7721 54.067L21.6974 53.3681L22.0706 53.1469H22.1033L22.1406 53.2L22.0566 53.4654L22.3086 53.5406L22.4205 53.1956H22.4485L22.5372 52.9302H22.4998C22.7144 52.8019 22.9197 52.6825 23.1203 52.5763L22.9897 53.0452L23.1436 53.0806L23.2509 53.8458L23.5168 53.8193L23.4049 52.8373H23.3302L23.4562 52.3949C23.7047 52.2669 23.9745 52.1802 24.2539 52.1384L24.0067 52.8815L24.2586 52.9567L24.4965 52.1163C24.6531 52.1419 24.796 52.2167 24.9024 52.3286C25.2476 52.6957 26.1619 52.0588 27.1836 51.0591L27.2303 51.3466L27.4915 51.3068L27.4122 50.8291C27.5024 50.7406 27.591 50.6477 27.6781 50.5504L27.7947 50.8821L28.0466 50.8025L27.8787 50.3336C28.0886 50.1081 28.2939 49.8692 28.4992 49.6303L28.2193 50.484L28.4712 50.5592L28.7977 49.5728L28.5971 49.5153L28.8164 49.2499L28.933 49.2145L28.905 49.1438L29.2922 48.6572L29.5348 48.5776L29.4742 48.4139C29.5581 48.3077 29.6375 48.2016 29.7121 48.0954L29.7447 48.1573L30.3046 47.9141V47.9848L30.5611 48.0468L30.6358 47.7725L30.7011 47.746L30.6638 47.6708L30.7104 47.4894L31.2236 47.3744L31.2609 47.7062L31.3122 48.1485H31.5735L31.7181 48.0866L31.5362 47.6973L31.6341 47.3479L32.5671 46.9321L32.4552 46.7065L31.9234 46.9409L31.7974 45.981L31.5362 46.012L31.6388 46.7817L31.5222 46.7551L31.4289 47.0869L31.2749 47.1223L31.1629 46.8878L31.2143 47.1665L30.8037 47.2594L30.8457 47.1134L30.5845 47.0515L30.4259 47.6398L29.9593 47.8477C30.146 47.5779 30.3186 47.3257 30.4632 47.0913C30.7151 46.6799 30.8924 46.3659 31.0183 46.1182H31.107L31.2562 45.5785C31.3094 45.445 31.3479 45.3255 31.3858 45.2079C31.4044 45.1501 31.4229 45.0927 31.4429 45.0344L31.6901 45.0035L31.6295 44.5611C31.809 44.1638 32.013 43.7768 32.2406 43.4022C32.2792 43.3362 32.3183 43.2683 32.3578 43.1989ZM33.2389 43.9772L32.973 44.0038L33.0803 44.9902L33.3462 44.9637L33.2389 43.9772ZM35.5668 39.7087L35.3056 39.7352L35.4548 40.6951H35.6974L35.5668 39.7087ZM34.4472 54.7968L34.3399 53.8148L34.074 53.8414L34.1859 54.8234L34.4472 54.7968ZM37.5215 43.6101L37.6614 44.4196L37.1203 44.6496L37.2323 44.8752L37.9227 44.57H37.9553L38.058 44.5213L38.0113 44.7027L38.2679 44.7646L38.5338 43.787L38.2772 43.7251L38.1093 44.3488L38.058 44.2471L37.9087 44.309L37.7827 43.5703L37.5215 43.6101ZM37.4562 41.5577L37.1949 41.5975L37.3675 42.606L37.6288 42.5662L37.4562 41.5577ZM38.3239 46.5915L38.1886 45.8041L38.7624 45.6803L38.7064 45.437L37.6801 45.6626L37.7221 45.8351L37.4982 46.6578L37.7547 46.7197L37.9507 46.0032L38.058 46.6313L38.3239 46.5915ZM38.3939 48.6439L38.6551 48.6041L38.5198 47.5779L38.2539 47.6177L38.3939 48.6439ZM37.4748 47.6885L37.2183 47.6265L37.0736 48.2016L37.4002 48.6439L37.6195 48.5068L37.3582 48.1308L37.4748 47.6885ZM42.4199 48.1662L42.1539 48.1927L42.2659 49.1747L42.5318 49.1482L42.4199 48.1662ZM44.0387 50.0638L43.7867 50.1434L44.1273 51.0945L44.3792 51.0149L44.0387 50.0638ZM48.4845 51.2051L48.3026 51.2316L48.2979 51.1652L48.3772 50.9264L48.1253 50.8512V50.9264L47.6588 50.285L47.4395 50.4265L47.9807 51.2404L47.7754 51.8553L48.0273 51.9349L48.1393 51.5987L48.2839 51.9968H48.3352L48.3819 52.2534L48.6291 52.2136L49.0956 52.8594L49.3196 52.7223L48.7597 51.9216L48.6245 52.0101L48.4845 51.2051ZM49.8747 53.5229L49.6508 53.66L49.6601 53.691H49.6135L49.7254 53.921L49.8094 53.8856L50.2106 54.4607L50.4299 54.3191L50.052 53.775L50.3319 53.6512L50.5372 54.2218L50.7891 54.1422L50.5745 53.545L50.6631 53.5052L50.5511 53.2752L50.4905 53.3062L50.4485 53.1912L50.1966 53.2752L50.2479 53.4123L49.9027 53.5627L49.8747 53.5229ZM49.6648 55.8186L49.9167 55.7346L49.5808 54.788L49.3289 54.8676L49.6648 55.8186ZM49.1003 56.2831L49.3662 56.2433L49.1936 55.2348L48.9277 55.2746L49.1003 56.2831ZM49.2403 53.837L49.0163 53.2088L49.3895 53.1248L49.3289 52.8815L48.951 52.9656L48.923 52.8815L48.6711 52.9611V53.0231L48.2886 53.1071L48.3492 53.3548L48.5918 53.3017L48.7504 54.2174L48.6944 54.1068L47.7614 54.5226L47.8734 54.7482L48.8064 54.3324L48.7691 54.2616L49.0163 54.2262L48.9417 53.7839L48.9883 53.9166L49.2403 53.837ZM47.6961 57.3712L47.5841 56.3893L47.3229 56.4158L47.4302 57.3978L47.6961 57.3712ZM47.1036 54.4474L47.2109 55.4294L47.4768 55.4028L47.3649 54.4208L47.1036 54.4474ZM47.8454 58.716L47.8081 58.3577L47.5422 58.3842L47.6121 59.0256L48.2746 58.8752L48.2186 58.6319L47.8454 58.716ZM47.2203 52.1826L47.5468 51.1962L47.2949 51.121L46.9683 52.1074L47.2203 52.1826ZM46.6978 52.1118L46.8704 51.4882L47.0243 51.4705L46.917 50.4885L46.6511 50.515L46.7071 51.0768L46.4412 52.0499L46.6978 52.1118ZM46.1986 50.7583L46.4412 50.8689L46.9077 49.9488L46.6651 49.8382L46.1986 50.7583ZM46.3199 53.5229L46.4412 53.0806L46.1426 53.0408L45.8767 54.0183L46.1333 54.0802L46.2406 53.6866L46.2686 53.8016L46.3899 53.775L46.2826 54.0891L46.5345 54.1643L46.6884 53.722L47.1969 53.6114L47.1176 53.8502L47.3695 53.9254L47.6961 52.939L47.4442 52.8638L47.2529 53.4389V53.346L47.1549 52.4613L46.889 52.4878L46.9917 53.3725L46.8237 53.4079L46.903 53.1602L46.6511 53.0806L46.5205 53.4787L46.3199 53.5229ZM46.0447 55.7523L46.1286 55.4957L46.7211 55.2967L46.5438 55.8275L46.7957 55.9027L47.1223 54.9207L46.8704 54.8411L46.8284 54.9694L46.2732 55.2171V55.1728L46.0213 55.0976L45.9374 55.3586H45.914L45.6854 56.0531L45.9374 56.1283V56.0973L46.1799 56.7829L45.8534 57.7694L46.1053 57.8445L46.4319 56.8581L46.1799 56.7829L46.4319 56.7033L46.096 55.7523H46.0447ZM44.5845 58.884L44.3186 59.8572L44.3932 59.8749L44.3559 59.9855L44.6078 60.0607L44.8597 59.3131L45.2096 59.8174L45.2936 59.7643L45.4429 59.8085L45.7694 58.8221L45.5175 58.7469L45.2796 59.4591L44.8737 58.8796L44.7897 58.9327L44.5845 58.884ZM45.2609 58.0923L45.5875 57.1058L45.3495 57.0395V56.9953L45.093 56.9289L44.8271 57.9065L45.009 57.9507V58.0171L45.2609 58.0923ZM45.6435 54.9782L45.3775 55.9558L45.6388 56.0177L45.9 55.0401L45.6435 54.9782ZM44.0107 56.1725L44.1226 56.3981L45.0556 55.9867L44.9437 55.7567L44.0107 56.1725ZM43.4182 56.2875L43.6561 56.3981L44.1226 55.478L43.8847 55.3719L43.4182 56.2875ZM43.6141 60.9453L43.88 60.9188L43.7681 59.9368L43.5068 59.9633L43.6141 60.9453ZM43.2829 57.9949L43.3949 58.9813L43.6608 58.9548L43.5488 57.9684L43.2829 57.9949ZM43.7727 57.2651L43.5535 57.4022L44.0946 58.2161L44.3186 58.079L43.7727 57.2651ZM45.2842 52.594L45.5222 52.7046L45.9887 51.7845L45.7507 51.6784L45.2842 52.594ZM45.7601 54.7836L45.4195 53.8325L45.2283 53.8945L45.2003 53.7662L44.9204 53.8281L45.023 53.6335L44.7851 53.5229L44.6218 53.9077L44.2113 54.0006L44.2672 54.2439L44.4772 54.1997L44.3512 54.4474L44.5891 54.5536L44.8084 54.1112L45.2096 54.0227L45.5082 54.8632L45.7601 54.7836ZM42.1026 61.0073L41.972 60.0253L41.7901 60.0474L42.2566 59.1627L42.0187 59.0521L41.5521 59.9722L41.7388 60.0562H41.7108L41.8414 61.0426L42.1026 61.0073ZM39.6861 63.6436L39.924 63.7542L40.3066 63.0022L40.3905 62.8341L40.1526 62.7235L39.6861 63.6436ZM41.0856 60.8878L40.6191 61.8079L40.857 61.9141L41.3236 60.9984L41.0856 60.8878ZM40.9177 65.466L40.9783 65.7093L41.986 65.466L41.944 65.236L40.9177 65.466ZM41.972 62.0246L42.056 62.6705L42.098 63.0066L42.3639 62.9757L42.3172 62.6129L42.2333 61.9937L41.972 62.0246ZM42.2286 63.993L42.3592 64.975L42.6251 64.9441L42.4945 63.9577L42.2286 63.993ZM43.3156 64.0107L43.3855 63.7984L43.5255 63.8338L43.7914 62.8562L43.5348 62.7943L43.4835 62.9801L43.3902 62.9491L43.0636 63.9355L43.3156 64.0107ZM43.7261 61.9671L43.7587 62.2591L43.8101 62.9403L44.076 62.9137L43.9967 62.1927V61.9716L44.0247 61.8787H44.0573L44.2159 61.2904L44.2952 61.0515L44.3326 60.9055L44.076 60.8436L43.9687 61.2329L43.7261 61.9671ZM43.9454 63.9267L44.0573 64.9131L44.3186 64.8866L44.2113 63.9002L43.9454 63.9267ZM44.0666 63.1791L44.3186 63.2543L44.4772 62.7722L44.2253 62.697L44.0666 63.1791ZM44.8784 60.7286L44.5518 61.7106L44.8037 61.7858L45.1303 60.8038L44.8784 60.7286ZM45.0137 64.5637L45.0696 64.8069L46.096 64.5814L46.0353 64.3336L45.0137 64.5637ZM45.7694 60.6003L46.3386 61.4319L46.5485 61.2594L45.9887 60.4588L45.7694 60.6003ZM46.7771 57.6632L46.5252 57.7428L46.861 58.6938L47.113 58.6098L46.7771 57.6632ZM46.8984 62.2547L47.4582 63.0509L47.6774 62.9137L47.1223 62.1131L46.8984 62.2547ZM47.2063 59.6626L47.5422 60.6136L47.7941 60.534L47.4582 59.5829L47.2063 59.6626ZM47.8827 61.5646L48.2186 62.5156L48.4705 62.436L48.1346 61.485L47.8827 61.5646ZM49.5202 62.6881L49.7767 62.7501L50.0426 61.7769L49.7861 61.715L49.5202 62.6881ZM49.9867 61.3302L50.1593 62.3343L50.4205 62.2945L50.2479 61.2859L49.9867 61.3302ZM50.052 60.7374L50.3086 60.7994L50.5745 59.8262L50.3179 59.7599L50.052 60.7374ZM51.3675 60.5826L51.7081 61.5336L51.96 61.4496L51.6195 60.503L51.3675 60.5826ZM52.6924 59.0698L52.8231 60.0518L53.0843 60.0209L52.9583 59.0389L52.6924 59.0698ZM53.6535 57.7207L54.2786 57.5836L54.3485 57.8401L54.6098 57.8092L54.5258 57.1457L54.4838 56.8272L54.2179 56.8581L54.2786 57.3005V57.3226H54.1386C53.9256 57.1473 53.729 56.9549 53.5508 56.7475C53.3646 56.5422 53.2045 56.313 53.0509 56.0932C52.8737 55.8395 52.7051 55.5983 52.5152 55.4205L52.4685 55.0622L52.2073 55.0932V55.2126C52.0532 55.1472 51.8847 55.1187 51.7163 55.1295C51.5479 55.1403 51.3849 55.1901 51.2416 55.2746L51.1669 55.0711L51.041 55.1109L50.9244 55.164L50.8124 55.2348L50.9524 55.4294L50.8264 55.5046C49.4688 56.4158 48.3119 57.588 48.2466 59.6272C48.2443 59.6684 48.2443 59.7098 48.2466 59.751V59.8926C48.2466 59.9368 48.2461 59.982 48.2455 60.0272C48.2445 60.1177 48.2435 60.2081 48.2466 60.2907C48.2487 60.3465 48.2555 60.4014 48.2624 60.4567C48.2708 60.524 48.2792 60.5918 48.2792 60.6622H48.3306C48.4582 60.6029 48.5839 60.545 48.7083 60.4878C49.0658 60.3232 49.412 60.1638 49.7581 59.9899L49.8141 60.2995L50.0753 60.2597L50.01 59.8616C50.3179 59.7024 50.6305 59.5387 50.943 59.3662L51.027 59.6095L51.2789 59.5299L51.1763 59.2335C51.7407 58.915 52.3006 58.5877 52.8417 58.2382H52.8744L53.5042 57.8269L53.6535 57.7207ZM54.4418 58.8133L54.5725 59.7953L54.8337 59.7643L54.7031 58.7823L54.4418 58.8133ZM54.5305 56.8449L54.6378 56.9997L55.1043 57.6455L55.3142 57.5039L54.8477 56.8404L54.7544 56.7033L54.5305 56.8449ZM56.1773 57.672L56.4432 57.6455L56.3825 57.097H56.4712L56.4105 56.8537H56.3545V56.6591L56.0933 56.6856V56.9112L55.3889 57.066L55.4495 57.3093L56.1213 57.1589L56.1773 57.672ZM57.1056 57.9773L56.6391 58.8973L56.8817 59.0079L57.3482 58.0878L57.1056 57.9773ZM57.7168 54.642L58.0573 55.5886L58.3092 55.509L57.9687 54.558L57.7168 54.642ZM58.5052 55.2215L58.7477 55.3321L59.2143 54.412L58.9717 54.3014L58.5052 55.2215ZM60.1193 52.6427L60.2732 53.5273L60.5392 53.5008L60.3665 52.4967L60.1053 52.5365V52.5675L59.9047 52.479L59.4382 53.3991L59.6808 53.5052L60.1193 52.6427ZM60.5998 51.9438L60.875 52.709L61.127 52.625L60.847 51.8509L60.7677 51.6739L60.5252 51.7712L60.5998 51.9438ZM61.7428 51.1785L61.8734 52.1649L62.1346 52.1295L62.0087 51.1475L61.7428 51.1785ZM63.2729 51.5943L63.5108 51.7005L63.9773 50.7804L63.7394 50.6742L63.2729 51.5943ZM65.6055 44.8531L65.8714 44.8265L65.7921 44.278H65.8807L65.8201 44.0348H65.7641V43.8446L65.4982 43.8711L65.5215 44.0923L64.8171 44.2471L64.8777 44.4904L65.5495 44.3444L65.6055 44.8531ZM64.5232 48.9093L64.3925 47.9229L64.1313 47.9583L64.2572 48.9403L64.5232 48.9093ZM65.139 47.9273L65.3769 48.0335L65.8527 47.1178L65.6148 47.0073L65.3116 47.5956H64.5885V47.8477H65.1763L65.139 47.9273ZM65.8201 46.6313L65.8434 46.8303L66.1186 46.8038L66.0113 45.8174L65.7454 45.8439L65.7734 46.1049L65.3442 45.4812L65.1203 45.6227L65.6731 46.4155L64.8217 46.7949L64.8964 46.9542L64.6445 47.0648L64.7564 47.2904L65.6894 46.879L65.6148 46.7197L65.8201 46.6313ZM66.3099 46.1978L66.7764 45.2777L66.5385 45.1671L66.072 46.0872L66.3099 46.1978ZM66.3192 41.7169L66.4499 42.6989L66.7158 42.6679L66.5851 41.6859L66.3192 41.7169ZM66.4685 39.9299L66.8091 40.8809L67.0516 40.7615L66.7111 39.8104L66.4685 39.9299ZM67.1449 41.8319L67.4855 42.7785L67.7374 42.6989L67.3969 41.7479L67.1449 41.8319ZM67.9334 42.4114L68.1759 42.522L68.6424 41.6019L68.3999 41.4913L67.9334 42.4114ZM67.8774 37.0458L68.4325 37.8464L68.6564 37.7093L68.0966 36.9087L67.8774 37.0458ZM69.4775 36.5504L69.3655 36.3204L68.4325 36.7362L68.5445 36.9662L69.4775 36.5504ZM68.6564 36.2098L68.899 36.1081L68.4838 35.1791L68.3719 35.2278L68.4372 35.0951L68.1993 34.9845L67.7328 35.9046L67.9707 36.0152L68.2879 35.387L68.6564 36.2098ZM68.1106 29.7251L68.4605 30.7071L68.7031 30.5965L68.3625 29.6455L68.1106 29.7251ZM68.7964 31.6581L69.1369 32.6047L69.3889 32.5251L69.0483 31.5741L68.7964 31.6581Z" fill="#BB5C04"/>
<path d="M62.5647 53.5345L62.5778 53.5406L62.6067 53.4837C62.5927 53.5006 62.5787 53.5176 62.5647 53.5345Z" fill="#BB5C04"/>
<path d="M64.407 49.8565L64.4438 49.8736L64.4554 49.8509L64.407 49.8565Z" fill="#BB5C04"/>
</svg>
