<svg width="25" height="24" viewBox="0 0 25 24" fill="none" xmlns="http://www.w3.org/2000/svg">
<path d="M17.3 3.60001C18.2183 3.59995 19.1018 3.9508 19.7699 4.58075C20.438 5.2107 20.8401 6.07213 20.894 6.98881L20.9 7.20001V12.4548C20.8999 13.0183 20.7015 13.5637 20.3396 13.9956L20.1968 14.1516L14.6516 19.6968C14.2532 20.0952 13.7273 20.3408 13.166 20.3904L12.9548 20.4H7.7C6.78175 20.4001 5.89818 20.0492 5.23009 19.4193C4.56199 18.7893 4.15987 17.9279 4.106 17.0112L4.1 16.8V7.20001C4.09995 6.28175 4.45079 5.39819 5.08074 4.73009C5.71069 4.062 6.57213 3.65988 7.4888 3.60601L7.7 3.60001H17.3ZM17.3 4.80001H7.7C7.09451 4.79981 6.51132 5.02849 6.06734 5.4402C5.62336 5.85191 5.35141 6.41622 5.306 7.02001L5.3 7.20001V16.8C5.29981 17.4055 5.52849 17.9887 5.9402 18.4327C6.3519 18.8766 6.91621 19.1486 7.52 19.194L7.7 19.2H12.5V15.6C12.4999 14.6818 12.8508 13.7982 13.4807 13.1301C14.1107 12.462 14.9721 12.0599 15.8888 12.006L16.1 12H19.7V7.20001C19.7002 6.59451 19.4715 6.01133 19.0598 5.56735C18.6481 5.12337 18.0838 4.85142 17.48 4.80601L17.3 4.80001ZM19.4396 13.2012L16.1 13.2C15.4945 13.1998 14.9113 13.4285 14.4673 13.8402C14.0234 14.2519 13.7514 14.8162 13.706 15.42L13.7 15.6V18.9372L13.8032 18.8484L19.3484 13.3032C19.3806 13.2712 19.4107 13.2371 19.4384 13.2012H19.4396Z" fill="#212121"/>
</svg>
