<svg width="25" height="24" viewBox="0 0 25 24" fill="none" xmlns="http://www.w3.org/2000/svg">
<path d="M12.5 15C14.1569 15 15.5 13.6569 15.5 12C15.5 10.3431 14.1569 9 12.5 9C10.8431 9 9.5 10.3431 9.5 12C9.5 13.6569 10.8431 15 12.5 15Z" stroke="#212121" stroke-width="1.5"/>
<path d="M14.265 2.152C13.898 2 13.432 2 12.5 2C11.568 2 11.102 2 10.735 2.152C10.4922 2.25251 10.2715 2.3999 10.0857 2.58572C9.89989 2.77155 9.75251 2.99218 9.65199 3.235C9.55999 3.458 9.52299 3.719 9.50899 4.098C9.50276 4.37199 9.42699 4.6399 9.2888 4.87657C9.15062 5.11324 8.95454 5.31091 8.71899 5.451C8.47989 5.58504 8.21064 5.6561 7.93653 5.6575C7.66242 5.6589 7.39245 5.59059 7.15199 5.459C6.81599 5.281 6.57299 5.183 6.33199 5.151C5.80631 5.08187 5.27469 5.22431 4.85399 5.547C4.53999 5.79 4.30599 6.193 3.83999 7C3.37399 7.807 3.13999 8.21 3.08899 8.605C3.05463 8.86545 3.07191 9.13012 3.13986 9.38389C3.20781 9.63767 3.32508 9.87556 3.48499 10.084C3.63299 10.276 3.83999 10.437 4.16099 10.639C4.63399 10.936 4.93799 11.442 4.93799 12C4.93799 12.558 4.63399 13.064 4.16099 13.36C3.83999 13.563 3.63199 13.724 3.48499 13.916C3.32508 14.1244 3.20781 14.3623 3.13986 14.6161C3.07191 14.8699 3.05463 15.1345 3.08899 15.395C3.14099 15.789 3.37399 16.193 3.83899 17C4.30599 17.807 4.53899 18.21 4.85399 18.453C5.06243 18.6129 5.30033 18.7302 5.5541 18.7981C5.80787 18.8661 6.07254 18.8834 6.33299 18.849C6.57299 18.817 6.81599 18.719 7.15199 18.541C7.39245 18.4094 7.66242 18.3411 7.93653 18.3425C8.21064 18.3439 8.47989 18.415 8.71899 18.549C9.20199 18.829 9.48899 19.344 9.50899 19.902C9.52299 20.282 9.55899 20.542 9.65199 20.765C9.75251 21.0078 9.89989 21.2284 10.0857 21.4143C10.2715 21.6001 10.4922 21.7475 10.735 21.848C11.102 22 11.568 22 12.5 22C13.432 22 13.898 22 14.265 21.848C14.5078 21.7475 14.7284 21.6001 14.9143 21.4143C15.1001 21.2284 15.2475 21.0078 15.348 20.765C15.44 20.542 15.477 20.282 15.491 19.902C15.511 19.344 15.798 18.828 16.281 18.549C16.5201 18.415 16.7894 18.3439 17.0635 18.3425C17.3376 18.3411 17.6075 18.4094 17.848 18.541C18.184 18.719 18.427 18.817 18.667 18.849C18.9274 18.8834 19.1921 18.8661 19.4459 18.7981C19.6997 18.7302 19.9376 18.6129 20.146 18.453C20.461 18.211 20.694 17.807 21.16 17C21.626 16.193 21.86 15.79 21.911 15.395C21.9454 15.1345 21.9281 14.8699 21.8601 14.6161C21.7922 14.3623 21.6749 14.1244 21.515 13.916C21.367 13.724 21.16 13.563 20.839 13.361C20.6047 13.2186 20.4105 13.019 20.2746 12.7809C20.1387 12.5428 20.0655 12.2741 20.062 12C20.062 11.442 20.366 10.936 20.839 10.64C21.16 10.437 21.368 10.276 21.515 10.084C21.6749 9.87556 21.7922 9.63767 21.8601 9.38389C21.9281 9.13012 21.9454 8.86545 21.911 8.605C21.859 8.211 21.626 7.807 21.161 7C20.694 6.193 20.461 5.79 20.146 5.547C19.9376 5.38709 19.6997 5.26981 19.4459 5.20187C19.1921 5.13392 18.9274 5.11664 18.667 5.151C18.427 5.183 18.184 5.281 17.847 5.459C17.6067 5.59042 17.3369 5.65862 17.063 5.65722C16.789 5.65582 16.52 5.58486 16.281 5.451C16.0454 5.31091 15.8494 5.11324 15.7112 4.87657C15.573 4.6399 15.4972 4.37199 15.491 4.098C15.477 3.718 15.441 3.458 15.348 3.235C15.2475 2.99218 15.1001 2.77155 14.9143 2.58572C14.7284 2.3999 14.5078 2.25251 14.265 2.152Z" stroke="#212121" stroke-width="1.5"/>
</svg>
