<svg width="60" height="60" viewBox="0 0 60 60" fill="none" xmlns="http://www.w3.org/2000/svg">
<g filter="url(#filter0_d_106_85)">
<rect x="9" y="7" width="40" height="40" rx="4" fill="white" shape-rendering="crispEdges"/>
<path fill-rule="evenodd" clip-rule="evenodd" d="M33.5 17.25C33.0245 17.2498 32.5548 17.354 32.1239 17.5552C31.6931 17.7564 31.3116 18.0496 31.0065 18.4143C30.7013 18.7789 30.4799 19.2061 30.3578 19.6657C30.2358 20.1252 30.216 20.606 30.3 21.074L25.57 24.386C25.5463 24.4024 25.5236 24.4201 25.502 24.439C25.0221 24.0639 24.4465 23.8312 23.8408 23.7674C23.235 23.7036 22.6236 23.8113 22.0761 24.0782C21.5286 24.3452 21.0672 24.7606 20.7444 25.2771C20.4216 25.7936 20.2504 26.3904 20.2504 26.9995C20.2504 27.6086 20.4216 28.2054 20.7444 28.7219C21.0672 29.2384 21.5286 29.6538 22.0761 29.9208C22.6236 30.1877 23.235 30.2954 23.8408 30.2316C24.4465 30.1678 25.0221 29.9351 25.502 29.56C25.5236 29.5793 25.5463 29.5973 25.57 29.614L30.3 32.926C30.1596 33.7088 30.311 34.5158 30.7257 35.1944C31.1403 35.873 31.7894 36.376 32.55 36.6082C33.3106 36.8404 34.1299 36.7857 34.8529 36.4544C35.5758 36.1231 36.1522 35.5382 36.4729 34.8105C36.7936 34.0828 36.8364 33.2628 36.5931 32.5057C36.3499 31.7485 35.8374 31.1069 35.1529 30.7022C34.4683 30.2975 33.6591 30.1578 32.8785 30.3096C32.0978 30.4615 31.4 30.8942 30.917 31.526L26.438 28.391C26.638 27.969 26.75 27.498 26.75 27C26.75 26.502 26.638 26.03 26.438 25.609L30.918 22.473C31.2536 22.9123 31.6957 23.2587 32.2024 23.4795C32.7092 23.7003 33.2639 23.7882 33.8141 23.7348C34.3644 23.6815 34.8919 23.4887 35.3468 23.1747C35.8017 22.8607 36.1691 22.4358 36.414 21.9403C36.659 21.4447 36.7735 20.8949 36.7468 20.3427C36.72 19.7906 36.5529 19.2544 36.2612 18.7849C35.9694 18.3153 35.5628 17.9279 35.0796 17.6594C34.5965 17.3908 34.0528 17.2499 33.5 17.25ZM31.75 20.5C31.75 20.0359 31.9344 19.5908 32.2626 19.2626C32.5907 18.9344 33.0359 18.75 33.5 18.75C33.9641 18.75 34.4092 18.9344 34.7374 19.2626C35.0656 19.5908 35.25 20.0359 35.25 20.5C35.25 20.9641 35.0656 21.4092 34.7374 21.7374C34.4092 22.0656 33.9641 22.25 33.5 22.25C33.0359 22.25 32.5907 22.0656 32.2626 21.7374C31.9344 21.4092 31.75 20.9641 31.75 20.5ZM23.5 25.25C23.0359 25.25 22.5907 25.4344 22.2626 25.7626C21.9344 26.0908 21.75 26.5359 21.75 27C21.75 27.4641 21.9344 27.9092 22.2626 28.2374C22.5907 28.5656 23.0359 28.75 23.5 28.75C23.9641 28.75 24.4092 28.5656 24.7374 28.2374C25.0656 27.9092 25.25 27.4641 25.25 27C25.25 26.5359 25.0656 26.0908 24.7374 25.7626C24.4092 25.4344 23.9641 25.25 23.5 25.25ZM33.5 31.75C33.0359 31.75 32.5907 31.9344 32.2626 32.2626C31.9344 32.5908 31.75 33.0359 31.75 33.5C31.75 33.9641 31.9344 34.4092 32.2626 34.7374C32.5907 35.0656 33.0359 35.25 33.5 35.25C33.9641 35.25 34.4092 35.0656 34.7374 34.7374C35.0656 34.4092 35.25 33.9641 35.25 33.5C35.25 33.0359 35.0656 32.5908 34.7374 32.2626C34.4092 31.9344 33.9641 31.75 33.5 31.75Z" fill="#BB5C04"/>
<rect x="9.5" y="7.5" width="39" height="39" rx="3.5" stroke="#F6F8FF" shape-rendering="crispEdges"/>
</g>
<defs>
<filter id="filter0_d_106_85" x="0" y="0" width="60" height="60" filterUnits="userSpaceOnUse" color-interpolation-filters="sRGB">
<feFlood flood-opacity="0" result="BackgroundImageFix"/>
<feColorMatrix in="SourceAlpha" type="matrix" values="0 0 0 0 0 0 0 0 0 0 0 0 0 0 0 0 0 0 127 0" result="hardAlpha"/>
<feOffset dx="1" dy="3"/>
<feGaussianBlur stdDeviation="5"/>
<feComposite in2="hardAlpha" operator="out"/>
<feColorMatrix type="matrix" values="0 0 0 0 0.919271 0 0 0 0 0.919271 0 0 0 0 0.919271 0 0 0 0.25 0"/>
<feBlend mode="normal" in2="BackgroundImageFix" result="effect1_dropShadow_106_85"/>
<feBlend mode="normal" in="SourceGraphic" in2="effect1_dropShadow_106_85" result="shape"/>
</filter>
</defs>
</svg>
